if (_typeface_js && _typeface_js.loadFace) _typeface_js.loadFace({"glyphs":{"0":{"ha":807,"x_min":60,"x_max":745,"o":"m 404 985 q 566 947 500 985 q 671 840 631 909 q 728 677 711 772 q 745 471 745 583 q 723 271 745 361 q 656 118 701 181 q 548 19 612 54 q 397 -16 483 -16 q 243 21 307 -16 q 138 125 179 58 q 79 283 98 191 q 60 485 60 375 q 82 694 60 601 q 148 851 104 787 q 255 951 191 916 q 404 985 319 985 m 401 890 q 304 861 345 890 q 235 779 262 831 q 194 653 208 726 q 180 493 180 581 q 184 397 180 446 q 196 302 187 348 q 221 216 205 256 q 262 145 237 176 q 321 98 287 115 q 403 81 356 81 q 499 110 458 81 q 567 190 541 138 q 607 313 594 241 q 621 470 621 385 q 617 565 621 516 q 606 661 614 614 q 582 749 597 707 q 542 822 566 791 q 483 871 517 853 q 401 890 448 890 z "},"1":{"ha":807,"x_min":185,"x_max":638,"o":"m 185 861 q 286 904 237 879 q 379 957 334 928 l 491 975 l 491 97 l 638 97 l 638 0 l 226 0 l 226 97 l 374 97 l 374 844 q 283 797 329 819 q 185 755 237 775 l 185 861 z "},"2":{"ha":807,"x_min":66,"x_max":702,"o":"m 702 0 l 67 0 l 66 100 q 171 197 114 145 q 285 305 228 250 q 395 417 342 360 q 490 529 449 474 q 556 633 532 583 q 581 726 581 684 q 568 791 581 762 q 529 842 554 821 q 468 874 503 863 q 389 886 432 886 q 314 876 349 886 q 248 845 278 865 q 195 796 218 825 q 156 731 172 767 l 90 797 q 136 874 106 840 q 205 933 165 909 q 294 969 245 957 q 396 982 342 982 q 517 964 462 982 q 614 914 573 947 q 677 835 654 882 q 700 731 700 789 q 670 607 700 670 q 589 479 640 544 q 472 349 538 415 q 332 216 405 283 q 270 159 300 187 q 207 98 239 131 l 702 98 l 702 0 z "},"3":{"ha":807,"x_min":73,"x_max":711,"o":"m 260 552 q 281 551 270 551 q 302 551 293 551 q 410 561 362 551 q 491 591 458 570 q 542 648 524 613 q 560 736 560 684 q 546 803 560 774 q 506 849 532 831 q 446 877 481 867 q 369 886 410 886 q 241 856 297 886 q 149 765 184 826 l 82 825 q 125 891 97 862 q 192 941 154 920 q 277 972 231 961 q 373 983 323 983 q 489 967 433 983 q 589 920 545 951 q 659 842 632 888 q 685 736 685 796 q 671 655 685 692 q 631 589 656 618 q 569 539 605 559 q 489 506 533 518 l 496 505 q 583 475 543 495 q 651 424 623 454 q 695 354 680 393 q 711 265 711 314 q 683 148 711 200 q 604 59 654 96 q 490 4 555 23 q 352 -16 425 -16 q 253 -5 299 -16 q 170 26 206 5 q 108 79 133 47 q 73 151 83 110 l 130 220 q 165 160 142 186 q 217 117 187 134 q 283 90 247 99 q 358 81 319 81 q 449 94 407 81 q 523 130 492 106 q 573 189 555 154 q 591 267 591 223 q 571 354 591 318 q 516 413 552 390 q 429 446 480 435 q 313 456 377 456 q 287 455 302 456 q 261 454 273 455 l 260 552 z "},"4":{"ha":806,"x_min":17,"x_max":754,"o":"m 492 0 l 492 238 l 17 238 l 17 322 l 468 963 l 609 963 l 609 328 l 754 328 l 754 238 l 609 238 l 609 0 l 492 0 m 492 328 l 492 876 l 433 777 l 133 328 l 492 328 z "},"5":{"ha":807,"x_min":100,"x_max":724,"o":"m 155 196 q 251 109 195 137 q 370 81 307 81 q 470 99 427 81 q 544 148 514 117 q 589 219 574 178 q 604 307 604 260 q 591 388 604 350 q 552 453 578 425 q 489 498 527 481 q 402 514 451 514 q 317 496 355 514 q 257 446 279 479 l 138 442 l 138 966 l 674 966 l 674 868 l 248 868 l 239 569 q 318 603 277 591 q 406 614 359 614 q 539 590 480 614 q 639 526 598 567 q 702 428 680 484 q 724 304 724 371 q 700 178 724 237 q 630 77 675 120 q 519 9 585 34 q 372 -16 454 -16 q 292 -8 331 -16 q 217 16 252 0 q 152 58 182 33 q 100 117 122 83 l 155 196 z "},"6":{"ha":807,"x_min":62,"x_max":745,"o":"m 640 814 q 561 870 606 851 q 458 890 515 890 q 372 874 411 890 q 303 831 334 859 q 250 766 273 804 q 213 684 228 728 q 192 590 199 640 q 184 491 184 541 q 229 549 203 524 q 288 589 255 573 q 358 612 320 605 q 437 620 396 620 q 564 598 507 620 q 661 536 621 576 q 723 437 701 495 q 745 308 745 380 q 721 180 745 239 q 655 77 698 121 q 551 9 612 34 q 415 -16 490 -16 q 260 19 326 -16 q 150 116 194 54 q 84 267 106 179 q 62 460 62 354 q 88 663 62 568 q 163 830 113 759 q 287 944 213 902 q 457 985 360 985 q 588 961 531 985 q 677 890 645 937 l 640 814 m 420 528 q 345 517 380 528 q 281 488 309 507 q 231 442 252 469 q 198 384 210 416 q 197 364 197 372 q 197 352 197 357 q 197 345 197 347 q 197 340 197 342 q 210 242 197 289 q 251 159 224 195 q 320 102 279 123 q 416 81 361 81 q 502 98 464 81 q 568 145 541 115 q 609 216 595 175 q 624 304 624 256 q 612 392 624 351 q 574 463 600 433 q 510 510 549 493 q 420 528 472 528 z "},"7":{"ha":806,"x_min":64,"x_max":722,"o":"m 722 963 l 722 901 l 325 0 l 199 0 l 592 865 l 64 865 l 64 963 l 722 963 z "},"8":{"ha":807,"x_min":63,"x_max":733,"o":"m 398 985 q 520 969 463 985 q 618 921 576 952 q 685 843 661 889 q 709 740 709 798 q 659 594 709 654 q 519 507 609 535 q 678 409 623 475 q 733 249 733 342 q 706 136 733 185 q 632 53 678 86 q 525 2 585 19 q 398 -16 464 -16 q 271 2 332 -16 q 164 53 211 19 q 91 136 118 86 q 63 249 63 185 q 118 409 63 342 q 277 507 173 475 q 137 594 187 535 q 87 740 87 654 q 111 843 87 798 q 178 921 136 889 q 276 969 220 952 q 398 985 333 985 m 398 81 q 485 92 445 81 q 553 126 524 104 q 597 181 581 149 q 613 258 613 214 q 597 331 613 298 q 553 389 581 364 q 485 430 524 414 q 398 456 445 447 q 312 430 351 447 q 243 389 272 414 q 199 331 215 364 q 183 258 183 298 q 199 181 183 214 q 243 126 215 149 q 312 92 272 104 q 398 81 351 81 m 398 893 q 323 883 359 893 q 261 853 288 873 q 219 804 235 833 q 203 736 203 774 q 254 618 203 663 q 398 556 304 574 q 542 618 492 574 q 593 736 593 663 q 577 804 593 774 q 535 853 562 833 q 473 883 508 873 q 398 893 437 893 z "},"9":{"ha":807,"x_min":60,"x_max":741,"o":"m 161 159 q 244 100 197 120 q 351 81 292 81 q 469 113 418 81 q 554 200 520 146 q 606 327 589 255 q 623 478 623 399 l 623 479 q 519 390 584 418 q 370 361 454 361 q 241 384 298 361 q 143 447 184 407 q 81 544 103 488 q 60 667 60 600 q 83 793 60 734 q 150 894 106 851 q 255 961 193 937 q 394 985 317 985 q 542 955 477 985 q 651 864 606 924 q 718 716 695 804 q 741 514 741 628 q 715 299 741 397 q 640 132 690 202 q 516 23 589 62 q 349 -16 443 -16 q 217 10 275 -16 q 124 82 160 35 l 161 159 m 388 456 q 464 467 429 456 q 529 498 500 478 q 579 546 558 518 q 612 606 601 573 q 612 618 612 611 q 612 630 612 625 q 599 724 612 677 q 559 807 587 770 q 490 867 532 844 q 389 890 448 890 q 302 873 341 890 q 236 827 264 857 q 194 758 209 798 q 179 671 179 718 q 192 586 179 625 q 230 518 204 547 q 295 473 256 489 q 388 456 334 456 z "},"\r":{"ha":0,"x_min":0,"x_max":0,"o":""}," ":{"ha":406,"x_min":0,"x_max":0,"o":""},"!":{"ha":500,"x_min":176,"x_max":321,"o":"m 176 124 l 321 124 l 321 -16 l 176 -16 l 176 124 m 289 253 l 211 253 l 184 984 l 316 984 l 289 253 z "},"\"":{"ha":488,"x_min":77,"x_max":398,"o":"m 298 671 l 273 984 l 398 984 l 386 671 l 298 671 m 102 671 l 77 984 l 201 984 l 191 671 l 102 671 z "},"#":{"ha":842,"x_min":28,"x_max":803,"o":"m 803 685 l 793 601 l 624 601 l 589 414 l 760 414 l 751 329 l 574 329 l 518 41 l 420 41 l 474 329 l 297 329 l 241 41 l 142 41 l 199 329 l 28 329 l 36 414 l 216 414 q 232 508 224 462 q 250 601 241 553 l 73 601 l 81 685 l 264 685 l 318 963 l 417 963 l 365 685 l 542 685 l 593 963 l 692 963 l 640 685 l 803 685 m 526 601 l 349 601 l 312 414 l 491 414 l 526 601 z "},"$":{"ha":807,"x_min":93,"x_max":732,"o":"m 362 877 q 304 859 330 873 q 260 825 279 846 q 231 777 241 804 q 221 718 221 749 q 232 658 221 684 q 261 614 242 633 q 305 581 279 595 q 361 555 330 566 l 362 877 m 170 151 q 263 105 214 122 q 360 86 312 88 l 362 439 q 258 488 307 464 q 173 542 210 512 q 115 613 136 572 q 93 710 93 653 q 116 810 93 764 q 176 892 138 857 q 261 949 213 927 q 362 975 310 970 l 359 1068 l 444 1068 l 446 976 q 573 955 513 975 q 676 899 633 936 l 643 812 q 554 863 604 847 q 446 881 504 879 l 445 522 q 570 468 516 494 q 660 410 623 441 q 714 339 696 378 q 732 245 732 299 q 709 144 732 189 q 647 67 686 99 q 555 16 608 35 q 445 -7 503 -3 l 447 -117 l 363 -117 l 361 -11 q 243 7 299 -9 q 137 60 188 24 l 170 151 m 444 89 q 508 106 477 94 q 561 137 538 118 q 597 183 584 157 q 611 243 611 210 q 599 299 611 275 q 565 343 587 323 q 512 379 543 363 q 446 410 482 395 l 444 89 z "},"%":{"ha":1346,"x_min":114,"x_max":1225,"o":"m 986 422 q 921 406 948 422 q 876 365 894 391 q 850 306 859 339 q 842 237 842 273 q 850 168 842 201 q 877 111 859 136 q 921 73 895 87 q 985 58 948 58 q 1048 74 1021 58 q 1093 115 1076 89 q 1119 173 1110 140 q 1127 242 1127 206 q 1119 312 1127 279 q 1093 369 1110 345 q 1049 408 1076 393 q 986 422 1023 422 m 987 498 q 1088 479 1044 498 q 1163 426 1133 460 q 1209 344 1194 391 q 1225 241 1225 297 q 1208 140 1225 187 q 1159 58 1191 93 q 1083 2 1128 22 q 983 -18 1038 -18 q 882 1 926 -18 q 807 56 838 21 q 760 137 777 90 q 744 238 744 184 q 761 340 744 293 q 809 423 778 388 q 886 478 841 458 q 987 498 930 498 m 357 981 q 458 962 414 981 q 533 908 503 943 q 579 827 564 874 q 595 724 595 780 q 578 623 595 670 q 529 541 561 576 q 453 486 498 506 q 353 465 408 465 q 251 485 296 465 q 176 539 207 505 q 130 621 146 574 q 114 722 114 667 q 131 824 114 777 q 179 906 148 871 q 256 961 211 941 q 357 981 300 981 m 911 974 l 1017 974 l 403 -3 l 298 -3 l 911 974 m 356 905 q 292 890 319 905 q 247 849 264 875 q 220 791 229 824 q 212 722 212 758 q 220 652 212 685 q 247 595 229 619 q 292 556 264 570 q 355 542 319 542 q 419 557 392 542 q 463 598 446 572 q 489 656 481 623 q 498 725 498 689 q 489 795 498 762 q 463 852 481 828 q 419 891 446 877 q 356 905 392 905 z "},"&":{"ha":1117,"x_min":78,"x_max":1097,"o":"m 78 273 q 100 374 78 330 q 158 456 122 419 q 240 522 194 492 q 335 578 286 552 l 325 588 q 280 633 302 610 q 241 682 258 656 q 213 737 224 707 q 203 802 203 766 q 222 887 203 850 q 275 949 241 924 q 353 986 309 974 q 448 999 397 999 q 542 987 496 999 q 623 952 587 976 q 681 891 659 928 q 703 806 703 855 q 685 729 703 765 q 639 663 668 694 q 573 606 610 632 q 494 557 535 579 l 772 277 q 814 356 795 313 q 847 446 833 399 q 868 541 861 492 q 876 634 876 589 q 873 675 876 660 q 870 700 871 690 l 987 700 q 985 569 992 636 q 960 437 978 502 q 915 311 943 372 q 851 200 888 251 q 908 146 882 169 q 962 107 934 123 q 1022 79 989 90 q 1097 58 1055 67 l 1008 -8 q 950 7 976 -3 q 899 34 924 18 q 848 74 873 51 q 791 126 822 96 q 724 70 760 96 q 646 24 688 43 q 554 -7 604 4 q 448 -18 505 -18 q 301 1 369 -18 q 184 58 234 21 q 106 150 134 96 q 78 273 78 203 m 718 197 q 702 212 716 198 q 666 248 688 225 q 615 298 644 270 q 558 355 587 326 l 403 509 q 328 467 364 489 q 262 416 291 444 q 217 354 234 389 q 200 275 200 319 q 218 197 200 233 q 269 135 237 161 q 347 94 302 109 q 446 79 392 79 q 531 88 492 79 q 603 113 570 97 q 664 151 635 129 q 718 197 692 172 m 424 623 q 484 658 454 639 q 536 699 513 677 q 573 745 559 720 q 587 799 587 770 q 575 849 587 828 q 544 883 563 870 q 501 903 525 897 q 454 909 477 909 q 402 902 426 909 q 359 881 378 895 q 331 847 341 867 q 320 799 320 826 q 328 750 320 773 q 349 706 335 727 q 382 664 363 684 q 424 623 401 644 z "},"'":{"ha":376,"x_min":119,"x_max":244,"o":"m 144 671 l 119 984 l 244 984 l 232 671 l 144 671 z "},"(":{"ha":426,"x_min":104,"x_max":393,"o":"m 294 -176 q 220 -47 254 -115 q 159 94 185 20 q 119 243 134 167 q 104 398 104 320 q 117 556 104 479 q 155 705 131 632 q 214 847 180 778 q 292 984 249 917 l 392 984 q 260 701 307 848 q 214 400 214 555 q 227 254 214 329 q 263 105 239 179 q 319 -41 286 31 q 393 -176 352 -112 l 294 -176 z "},")":{"ha":426,"x_min":35,"x_max":325,"o":"m 38 -176 q 109 -45 77 -114 q 164 97 141 24 q 201 250 188 171 q 214 410 214 328 q 202 551 214 477 q 167 698 190 624 q 111 844 144 772 q 35 984 78 917 l 135 984 q 210 853 175 922 q 270 710 245 784 q 310 560 296 637 q 325 406 325 484 q 311 247 325 323 q 273 99 298 171 q 215 -42 249 26 q 139 -176 180 -111 l 38 -176 z "},"*":{"ha":722,"x_min":119,"x_max":597,"o":"m 394 782 l 553 864 l 597 779 l 418 720 l 555 549 l 469 500 l 362 680 l 258 505 l 174 556 l 304 718 l 119 770 l 133 862 l 326 779 q 312 881 319 829 q 298 984 304 933 l 399 984 l 394 782 z "},"+":{"ha":989,"x_min":134,"x_max":845,"o":"m 438 423 l 440 710 l 542 710 l 541 423 l 844 423 l 845 329 l 541 329 l 539 42 l 437 42 l 438 329 l 136 329 l 134 423 l 438 423 z "},",":{"ha":366,"x_min":53,"x_max":252,"o":"m 125 140 l 252 140 l 142 -174 l 53 -174 l 125 140 z "},"-":{"ha":494,"x_min":54,"x_max":441,"o":"m 54 332 l 54 425 l 441 425 l 441 332 l 54 332 z "},".":{"ha":366,"x_min":108,"x_max":255,"o":"m 255 -7 l 108 -7 l 108 135 l 255 135 l 255 -7 z "},"/":{"ha":486,"x_min":-32,"x_max":513,"o":"m -32 -146 l 400 984 l 513 984 l 79 -146 l -32 -146 z "},":":{"ha":366,"x_min":108,"x_max":255,"o":"m 255 570 l 108 570 l 108 713 l 255 713 l 255 570 m 255 -7 l 108 -7 l 108 135 l 255 135 l 255 -7 z "},";":{"ha":366,"x_min":68,"x_max":267,"o":"m 140 140 l 267 140 l 157 -174 l 68 -174 l 140 140 m 255 570 l 108 570 l 108 713 l 255 713 l 255 570 z "},"<":{"ha":989,"x_min":148,"x_max":832,"o":"m 297 374 l 829 136 l 829 33 l 148 345 l 149 404 l 831 724 l 832 620 l 297 374 z "},"=":{"ha":989,"x_min":134,"x_max":846,"o":"m 846 285 l 846 192 l 134 192 l 134 285 l 846 285 m 845 561 l 845 467 l 134 467 l 134 561 l 845 561 z "},">":{"ha":989,"x_min":146,"x_max":831,"o":"m 681 376 l 149 628 l 149 731 l 831 403 l 831 342 l 146 39 l 146 144 l 681 376 z "},"?":{"ha":700,"x_min":124,"x_max":610,"o":"m 241 250 q 238 290 239 270 q 236 327 237 308 q 235 359 235 345 q 254 435 235 401 q 302 501 273 470 q 365 562 331 532 q 428 623 399 591 q 476 688 456 654 q 495 763 495 722 q 479 829 495 802 q 435 873 463 856 q 373 898 408 890 q 301 906 338 906 q 210 894 254 906 q 124 859 165 882 l 124 958 q 222 992 173 982 q 315 1002 272 1002 q 431 988 377 1002 q 525 944 485 973 q 587 871 564 915 q 610 768 610 827 q 590 686 610 725 q 540 611 570 648 q 475 542 510 575 q 411 476 441 508 q 361 412 381 444 q 341 348 341 380 q 343 315 341 332 q 347 283 345 298 q 353 250 349 266 l 241 250 m 370 -7 l 223 -7 l 223 135 l 370 135 l 370 -7 z "},"@":{"ha":1285,"x_min":88,"x_max":1194,"o":"m 831 751 l 930 751 l 891 581 q 847 394 864 464 q 831 294 831 324 q 844 253 831 269 q 888 237 857 237 q 964 262 928 237 q 1029 329 1001 288 q 1073 426 1057 371 q 1090 540 1090 481 q 1058 693 1090 623 q 968 813 1025 763 q 831 892 911 864 q 655 920 751 920 q 470 884 555 920 q 322 785 385 848 q 225 638 260 722 q 191 459 191 554 q 224 280 191 363 q 319 137 258 198 q 467 42 381 77 q 659 8 553 8 q 849 39 759 8 q 1008 130 939 71 l 1062 83 q 983 17 1028 46 q 886 -32 938 -12 q 775 -63 833 -52 q 656 -74 717 -74 q 428 -33 532 -74 q 249 79 324 7 q 131 248 173 151 q 88 460 88 346 q 108 606 88 536 q 165 736 128 676 q 254 845 202 796 q 369 928 306 894 q 506 982 433 963 q 659 1001 578 1001 q 802 985 733 1001 q 930 941 871 970 q 1038 870 989 911 q 1121 777 1087 829 q 1175 665 1156 726 q 1194 536 1194 604 q 1166 386 1194 456 q 1093 264 1138 316 q 990 182 1048 212 q 873 153 932 153 q 775 178 814 153 q 726 260 736 203 q 646 196 691 217 q 552 174 601 174 q 473 190 511 174 q 404 235 434 205 q 356 310 374 265 q 338 414 338 355 q 350 505 338 460 q 385 589 363 549 q 438 662 408 629 q 505 720 469 696 q 581 758 541 745 q 663 772 621 772 q 757 751 716 772 q 819 693 798 730 l 831 751 m 444 395 q 452 340 444 365 q 475 298 460 316 q 513 271 490 281 q 564 261 535 261 q 647 287 608 261 q 714 354 686 312 q 758 448 742 395 q 774 557 774 501 q 768 609 774 585 q 749 649 762 632 q 715 674 736 665 q 665 683 694 683 q 576 656 616 683 q 506 587 535 629 q 460 494 477 545 q 444 395 444 444 z "},"A":{"ha":966,"x_min":9,"x_max":954,"o":"m 135 0 l 9 0 l 418 987 l 544 987 l 954 0 l 825 0 l 714 269 l 241 269 l 135 0 m 278 370 l 674 370 l 515 780 q 504 810 510 793 q 492 843 498 827 q 479 880 486 861 q 466 839 473 859 q 454 805 460 822 q 444 779 448 789 l 278 370 z "},"B":{"ha":917,"x_min":137,"x_max":823,"o":"m 137 0 l 137 987 l 334 987 q 439 986 389 987 q 537 979 490 985 q 632 954 589 973 q 708 906 676 935 q 758 837 740 876 q 776 749 776 797 q 763 672 776 709 q 726 606 749 635 q 669 555 702 576 q 596 522 635 533 q 599 521 597 522 q 602 521 601 521 q 692 490 651 511 q 762 438 732 469 q 807 365 791 406 q 823 273 823 324 q 802 170 823 219 q 740 82 781 120 q 637 22 699 45 q 494 0 576 0 l 137 0 m 254 562 l 387 562 q 484 569 436 562 q 569 596 532 577 q 630 648 607 615 q 653 730 653 680 q 633 811 653 780 q 578 859 613 842 q 497 881 544 876 q 395 887 450 887 l 254 887 l 254 562 m 254 461 l 254 100 l 446 100 q 633 143 567 100 q 699 275 699 186 q 680 365 699 329 q 624 422 661 401 q 532 452 587 444 q 407 461 478 461 l 254 461 z "},"C":{"ha":949,"x_min":73,"x_max":876,"o":"m 807 827 q 565 905 703 905 q 451 888 503 905 q 358 842 399 871 q 287 772 317 812 q 237 686 257 732 q 207 587 217 639 q 197 483 197 535 q 218 331 197 403 q 283 204 239 258 q 393 117 326 149 q 550 85 459 85 q 707 109 633 85 q 836 182 781 133 l 876 86 q 726 10 812 35 q 532 -16 640 -16 q 335 24 420 -16 q 191 131 250 63 q 103 290 133 199 q 73 484 73 380 q 88 619 73 553 q 131 743 102 685 q 200 849 159 801 q 295 932 241 898 q 412 986 348 967 q 552 1006 477 1006 q 717 981 644 1006 q 851 901 789 956 l 807 827 z "},"D":{"ha":1048,"x_min":131,"x_max":970,"o":"m 131 987 l 345 987 q 513 977 433 987 q 664 944 594 967 q 790 883 733 921 q 886 790 846 846 q 948 661 926 735 q 970 491 970 587 q 932 288 970 378 q 823 133 895 197 q 648 35 751 69 q 414 0 545 0 l 131 0 l 131 987 m 248 100 l 425 100 q 612 129 532 100 q 743 210 691 158 q 821 333 795 261 q 846 489 846 404 q 815 676 846 600 q 723 800 784 753 q 570 867 661 846 q 359 887 479 887 l 248 887 l 248 100 z "},"E":{"ha":826,"x_min":139,"x_max":747,"o":"m 747 0 l 139 0 l 139 987 l 727 987 l 727 887 l 256 887 l 256 556 l 701 556 l 701 456 l 256 456 l 256 100 l 747 100 l 747 0 z "},"F":{"ha":771,"x_min":134,"x_max":705,"o":"m 250 0 l 134 0 l 134 987 l 705 987 l 705 887 l 250 887 l 250 553 l 682 553 l 682 452 l 250 452 l 250 0 z "},"G":{"ha":1038,"x_min":79,"x_max":917,"o":"m 853 811 q 797 853 828 836 q 731 882 766 871 q 658 899 696 894 q 581 905 620 905 q 415 869 486 905 q 295 775 343 834 q 223 641 248 717 q 199 484 199 566 q 223 322 199 395 q 295 196 247 248 q 415 114 343 143 q 585 85 488 85 q 697 94 643 85 q 800 123 751 104 l 800 412 l 555 412 l 555 513 l 917 513 l 917 55 q 749 0 835 16 q 576 -16 663 -16 q 361 20 454 -16 q 205 119 268 55 q 111 274 142 184 q 79 475 79 365 q 94 615 79 548 q 139 742 109 683 q 212 849 168 801 q 311 933 255 898 q 435 987 367 968 q 583 1006 503 1006 q 678 998 632 1006 q 765 976 724 991 q 840 937 806 960 q 900 882 874 913 l 853 811 z "},"H":{"ha":1055,"x_min":137,"x_max":913,"o":"m 254 0 l 137 0 l 137 987 l 254 987 l 254 557 l 798 557 l 798 987 l 913 987 l 913 0 l 798 0 l 798 457 l 254 457 l 254 0 z "},"I":{"ha":401,"x_min":142,"x_max":259,"o":"m 259 0 l 142 0 l 142 987 l 259 987 l 259 0 z "},"J":{"ha":637,"x_min":48,"x_max":512,"o":"m 83 134 q 146 98 113 111 q 221 85 180 85 q 299 103 266 85 q 353 155 332 122 q 385 233 374 189 q 395 331 395 278 l 395 987 l 512 987 l 512 338 q 492 186 512 252 q 433 75 471 120 q 341 7 395 31 q 218 -16 287 -16 q 123 3 165 -16 q 48 55 81 22 l 83 134 z "},"K":{"ha":878,"x_min":142,"x_max":879,"o":"m 259 0 l 142 0 l 142 987 l 259 987 l 259 540 l 319 602 l 696 987 l 842 987 l 375 528 l 879 0 l 719 0 l 316 430 l 259 492 l 259 0 z "},"L":{"ha":760,"x_min":137,"x_max":728,"o":"m 728 0 l 137 0 l 137 987 l 254 987 l 254 100 l 726 100 l 728 0 z "},"M":{"ha":1358,"x_min":136,"x_max":1218,"o":"m 251 0 l 136 0 l 136 987 l 297 987 l 619 282 l 676 144 l 677 144 l 735 284 l 1059 987 l 1218 987 l 1218 0 l 1104 0 l 1104 633 l 1104 848 l 1069 766 l 719 0 l 633 0 l 292 751 l 251 860 l 251 631 l 251 0 z "},"N":{"ha":1081,"x_min":131,"x_max":946,"o":"m 131 0 l 131 987 l 271 987 l 777 232 l 830 146 l 830 304 l 830 987 l 946 987 l 946 0 l 805 0 l 296 755 l 248 839 l 248 710 l 248 0 l 131 0 z "},"O":{"ha":1128,"x_min":77,"x_max":1047,"o":"m 1047 492 q 1014 287 1047 380 q 919 126 981 194 q 766 22 857 59 q 562 -16 676 -16 q 359 20 449 -16 q 207 123 269 56 q 111 283 144 189 q 77 494 77 378 q 111 699 77 606 q 207 861 144 793 q 361 967 270 929 q 568 1006 452 1006 q 767 969 678 1006 q 918 865 856 932 q 1014 704 981 798 q 1047 492 1047 609 m 202 492 q 225 332 202 406 q 293 203 248 258 q 405 116 338 148 q 561 85 472 85 q 718 116 650 85 q 830 203 785 148 q 897 334 875 258 q 920 498 920 410 q 898 659 920 584 q 831 788 876 733 q 719 874 786 843 q 563 905 652 905 q 407 871 474 905 q 294 781 340 838 q 225 649 248 724 q 202 492 202 574 z "},"P":{"ha":864,"x_min":138,"x_max":814,"o":"m 254 0 l 138 0 l 138 987 l 369 987 q 482 982 427 987 q 587 965 537 977 q 678 931 636 952 q 750 877 720 909 q 797 798 780 844 q 814 692 814 753 q 780 559 814 614 q 690 468 747 503 q 559 415 633 432 q 405 398 486 398 l 254 398 l 254 0 m 254 887 l 254 499 l 431 499 q 534 510 487 499 q 616 545 582 522 q 670 604 650 568 q 689 690 689 640 q 668 788 689 749 q 608 848 646 826 q 516 879 570 870 q 399 887 463 887 l 254 887 z "},"Q":{"ha":1128,"x_min":81,"x_max":1086,"o":"m 202 491 q 225 332 202 406 q 293 203 248 258 q 405 117 338 149 q 561 85 472 85 q 718 116 650 85 q 829 203 785 148 q 897 334 874 258 q 919 498 919 410 q 897 658 919 584 q 830 787 875 732 q 719 873 786 842 q 563 905 652 905 q 407 871 474 905 q 294 780 339 837 q 225 648 248 723 q 202 491 202 573 m 1086 -123 q 1027 -129 1057 -127 q 972 -130 998 -130 q 812 -121 877 -130 q 703 -95 748 -111 q 625 -57 657 -79 q 562 -12 593 -36 q 364 24 453 -12 q 212 129 275 61 q 115 293 149 197 q 81 507 81 389 q 115 708 81 616 q 212 866 149 800 q 366 969 275 932 q 568 1006 456 1006 q 767 969 678 1006 q 918 866 856 932 q 1013 706 980 799 q 1046 500 1046 613 q 1024 328 1046 411 q 958 179 1002 245 q 848 65 913 112 q 694 1 782 19 q 758 -16 722 -9 q 833 -25 795 -22 q 907 -29 871 -28 q 969 -30 943 -30 q 1025 -27 994 -30 q 1084 -19 1055 -24 l 1086 -123 z "},"R":{"ha":934,"x_min":139,"x_max":873,"o":"m 256 442 l 256 0 l 139 0 l 139 987 l 380 987 q 468 986 420 987 q 564 977 516 985 q 657 954 612 970 q 737 909 702 938 q 792 837 772 881 q 813 728 813 792 q 798 642 813 682 q 755 572 783 603 q 689 519 728 541 q 602 485 650 497 l 603 485 q 671 445 644 471 q 720 377 698 418 q 762 278 741 335 q 814 145 783 220 l 873 0 l 745 0 l 642 284 q 608 361 625 330 q 569 409 591 391 q 515 435 546 427 q 439 442 484 442 l 256 442 m 256 542 l 436 542 q 527 550 481 542 q 609 578 572 558 q 667 631 645 597 q 690 718 690 665 q 671 801 690 768 q 619 853 652 834 q 541 880 586 872 q 444 887 496 887 l 256 887 l 256 542 z "},"S":{"ha":844,"x_min":93,"x_max":769,"o":"m 146 184 q 198 138 168 157 q 262 107 229 119 q 331 90 296 96 q 401 85 367 85 q 499 95 454 85 q 576 126 544 106 q 626 177 608 147 q 644 248 644 208 q 621 324 644 292 q 558 380 597 355 q 471 424 520 404 q 370 463 421 443 q 269 507 319 484 q 181 563 220 530 q 119 638 143 595 q 96 743 96 682 q 126 857 96 808 q 207 939 157 906 q 321 989 257 972 q 452 1006 385 1006 q 531 1001 490 1006 q 609 984 572 996 q 679 952 647 972 q 733 901 711 932 l 677 825 q 630 863 656 848 q 575 887 604 878 q 514 901 545 897 q 452 905 483 905 q 370 896 411 905 q 295 869 328 888 q 241 821 262 850 q 220 749 220 791 q 243 674 220 706 q 306 618 267 643 q 394 574 345 594 q 494 532 443 553 q 595 487 546 511 q 683 429 644 463 q 745 352 722 396 q 769 247 769 307 q 753 160 769 199 q 711 93 738 122 q 647 43 684 64 q 568 9 610 22 q 479 -9 526 -3 q 388 -16 433 -16 q 294 -7 338 -16 q 211 18 249 2 q 143 58 173 35 q 93 109 113 81 l 146 184 z "},"T":{"ha":796,"x_min":22,"x_max":777,"o":"m 340 0 l 340 887 l 22 887 l 22 987 l 777 987 l 777 887 l 456 887 l 456 0 l 340 0 z "},"U":{"ha":1039,"x_min":130,"x_max":907,"o":"m 130 987 l 246 987 l 246 370 q 315 158 246 232 q 517 85 383 85 q 630 104 579 85 q 716 160 680 123 q 771 248 751 196 q 790 366 790 300 l 790 987 l 907 987 l 906 374 q 881 210 905 282 q 807 87 856 137 q 684 11 758 37 q 513 -16 610 -16 q 334 12 407 -16 q 215 91 260 40 q 150 212 170 141 q 130 367 130 282 l 130 987 z "},"V":{"ha":906,"x_min":6,"x_max":898,"o":"m 136 987 l 423 208 l 454 113 l 487 209 l 777 987 l 898 987 l 515 0 l 387 0 l 6 987 l 136 987 z "},"W":{"ha":1426,"x_min":14,"x_max":1411,"o":"m 756 696 l 713 846 l 667 696 l 446 0 l 301 0 l 14 987 l 140 987 l 351 237 l 376 128 l 406 227 l 656 987 l 779 987 l 1022 234 l 1053 129 l 1078 225 l 1289 987 l 1411 987 l 1124 0 l 980 0 l 756 696 z "},"X":{"ha":884,"x_min":7,"x_max":871,"o":"m 396 364 l 146 0 l 7 0 l 372 503 l 32 987 l 178 987 l 401 650 l 449 579 l 498 650 l 732 987 l 865 987 l 518 503 l 871 0 l 727 0 l 481 365 l 438 427 l 396 364 z "},"Y":{"ha":859,"x_min":7,"x_max":853,"o":"m 368 0 l 368 395 l 7 987 l 136 987 l 429 493 l 724 987 l 853 987 l 485 397 l 485 0 l 368 0 z "},"Z":{"ha":829,"x_min":39,"x_max":783,"o":"m 777 0 l 39 0 l 39 62 l 625 887 l 61 887 l 61 987 l 783 987 l 783 928 l 194 100 l 777 100 l 777 0 z "},"[":{"ha":426,"x_min":130,"x_max":372,"o":"m 372 -176 l 130 -176 l 130 984 l 371 984 l 371 901 l 240 901 l 240 -93 l 372 -93 l 372 -176 z "},"\\":{"ha":479,"x_min":-47,"x_max":531,"o":"m 418 -81 l -47 984 l 66 984 l 531 -81 l 418 -81 z "},"]":{"ha":426,"x_min":53,"x_max":300,"o":"m 53 984 l 300 984 l 300 -176 l 59 -176 l 59 -93 l 189 -93 l 189 901 l 60 901 l 53 984 z "},"^":{"ha":988,"x_min":125,"x_max":851,"o":"m 125 373 l 451 971 l 519 971 l 851 373 l 746 373 l 513 797 l 484 854 l 458 798 l 231 373 l 125 373 z "},"_":{"ha":677,"x_min":-3,"x_max":677,"o":"m 677 -185 l -3 -185 l -3 -98 l 676 -98 l 677 -185 z "},"`":{"ha":402,"x_min":1,"x_max":313,"o":"m 1 1012 l 146 1012 l 313 795 l 226 795 l 1 1012 z "},"a":{"ha":844,"x_min":60,"x_max":754,"o":"m 395 713 q 473 705 437 713 q 538 683 508 697 q 593 648 568 669 q 640 600 618 627 l 644 696 l 754 696 l 751 524 l 751 0 l 640 0 l 641 98 q 600 55 625 76 q 544 19 575 35 q 475 -6 513 3 q 396 -16 437 -16 q 290 0 338 -16 q 205 42 243 15 q 141 104 168 68 q 96 182 113 140 q 69 268 78 223 q 60 355 60 312 q 81 487 60 422 q 143 602 102 551 q 248 682 185 652 q 395 713 311 713 m 408 74 q 497 93 455 74 q 570 150 538 113 q 620 244 602 188 q 640 373 639 300 q 623 473 640 428 q 576 552 606 519 q 502 604 545 585 q 404 622 458 622 q 329 611 362 622 q 270 580 296 600 q 225 534 244 560 q 194 477 206 507 q 176 414 182 447 q 170 350 170 382 q 175 286 170 319 q 189 222 179 253 q 217 165 199 192 q 261 118 235 138 q 323 86 287 98 q 408 74 359 74 z "},"b":{"ha":840,"x_min":102,"x_max":770,"o":"m 216 0 l 102 0 q 104 83 102 46 q 105 116 104 100 q 105 145 105 132 q 106 169 106 159 q 106 183 106 179 l 106 1012 l 218 1012 l 218 597 q 326 685 261 656 q 467 713 391 713 q 605 684 547 713 q 699 606 663 654 q 753 492 736 557 q 770 356 770 427 q 750 213 770 280 q 691 94 730 145 q 591 14 651 43 q 453 -16 532 -16 q 320 12 379 -16 q 218 93 261 39 l 216 0 m 657 373 q 642 470 657 425 q 599 549 627 515 q 531 602 571 583 q 441 622 491 622 q 344 600 386 622 q 274 540 302 578 q 232 453 246 503 q 218 349 218 404 q 230 243 218 290 q 267 162 241 195 q 335 110 293 128 q 439 92 377 92 q 542 116 500 92 q 609 179 584 140 q 646 269 635 218 q 657 373 657 319 z "},"c":{"ha":709,"x_min":62,"x_max":654,"o":"m 597 543 q 518 603 565 584 q 418 622 471 622 q 318 600 362 622 q 243 541 274 578 q 196 453 212 503 q 180 345 180 402 q 194 238 180 288 q 237 152 208 189 q 311 95 267 115 q 417 74 356 74 q 623 153 532 74 l 654 59 q 543 2 604 20 q 408 -16 482 -16 q 257 13 322 -16 q 149 89 193 41 q 84 203 106 138 q 62 341 62 268 q 85 485 62 417 q 153 603 109 553 q 261 683 197 654 q 408 713 326 713 q 552 687 490 713 q 648 616 614 661 l 597 543 z "},"d":{"ha":841,"x_min":63,"x_max":734,"o":"m 621 0 l 618 100 q 516 11 574 37 q 378 -16 458 -16 q 238 13 297 -16 q 140 90 178 41 q 82 204 101 138 q 63 343 63 269 q 83 483 63 416 q 143 601 103 550 q 244 683 184 652 q 383 713 304 713 q 518 684 458 713 q 618 602 578 656 l 618 1012 l 730 1012 l 730 174 q 731 86 730 133 q 734 0 732 39 l 621 0 m 395 74 q 492 95 450 74 q 562 156 534 117 q 604 250 590 195 q 618 372 618 304 q 603 474 618 428 q 559 553 588 520 q 491 604 531 586 q 401 622 451 622 q 302 600 344 622 q 233 539 260 577 q 193 451 206 501 q 180 344 180 400 q 192 242 180 291 q 228 156 203 193 q 295 96 254 119 q 395 74 336 74 z "},"e":{"ha":795,"x_min":78,"x_max":732,"o":"m 614 413 l 614 422 q 596 503 610 467 q 558 566 583 540 q 499 607 534 593 q 420 622 464 622 q 334 605 372 622 q 269 560 296 589 q 224 494 241 532 q 201 413 208 456 l 614 413 m 705 78 q 580 7 648 29 q 425 -16 511 -16 q 278 11 342 -16 q 169 86 214 38 q 101 200 125 134 q 78 346 78 267 q 101 488 78 421 q 168 604 124 554 q 276 684 212 654 q 420 713 339 713 q 559 687 500 713 q 656 615 618 661 q 713 506 694 569 q 732 369 732 443 q 731 352 732 361 q 730 334 731 342 l 197 334 l 199 303 q 219 210 203 252 q 265 138 236 168 q 336 91 294 107 q 431 74 378 74 q 563 99 503 74 q 670 171 623 124 l 705 78 z "},"f":{"ha":476,"x_min":31,"x_max":463,"o":"m 279 0 l 167 0 l 167 623 l 31 623 l 31 696 l 167 696 l 168 772 q 179 873 169 827 q 212 954 189 920 q 274 1007 235 988 q 370 1027 312 1027 q 395 1026 384 1027 q 417 1023 407 1025 q 439 1018 428 1021 q 462 1013 450 1015 l 463 925 q 429 933 450 930 q 389 935 408 935 q 333 926 354 935 q 300 898 311 916 q 284 851 288 879 q 279 788 279 824 l 279 696 l 446 696 l 447 623 l 279 623 l 279 0 z "},"g":{"ha":842,"x_min":62,"x_max":734,"o":"m 136 -127 q 249 -176 190 -160 q 365 -191 308 -191 q 472 -178 425 -191 q 551 -137 519 -165 q 601 -67 584 -110 q 618 33 618 -25 l 618 119 q 516 30 578 60 q 380 0 454 0 q 245 25 304 0 q 146 96 186 50 q 83 205 105 141 q 62 347 62 269 q 82 487 62 420 q 143 604 102 554 q 245 683 184 654 q 388 713 307 713 q 523 684 467 713 q 618 600 578 655 q 619 628 618 612 q 621 660 620 645 q 623 696 621 677 l 734 696 q 732 631 733 663 q 731 575 731 604 q 730 524 730 546 l 730 100 q 725 7 730 54 q 705 -82 720 -39 q 666 -162 691 -125 q 601 -227 641 -199 q 505 -270 562 -254 q 373 -286 449 -286 q 242 -273 305 -286 q 123 -231 180 -259 l 136 -127 m 618 373 q 604 470 618 425 q 561 549 589 515 q 492 602 532 583 q 402 622 452 622 q 306 600 347 622 q 236 540 264 578 q 194 453 208 503 q 180 349 180 404 q 191 243 180 290 q 228 162 202 195 q 296 110 254 128 q 400 92 338 92 q 503 116 461 92 q 571 179 545 140 q 607 269 596 218 q 618 373 618 319 z "},"h":{"ha":825,"x_min":115,"x_max":715,"o":"m 227 1012 l 227 604 q 326 687 269 661 q 460 713 383 713 q 586 688 536 713 q 664 623 635 663 q 704 533 692 583 q 715 431 715 483 l 715 0 l 603 0 l 603 425 q 594 504 603 468 q 566 567 586 541 q 512 607 546 593 q 429 622 479 622 q 343 604 381 622 q 280 555 306 586 q 240 483 254 524 q 227 397 227 442 l 227 0 l 115 0 l 115 1012 l 227 1012 z "},"i":{"ha":341,"x_min":113,"x_max":225,"o":"m 222 991 l 222 886 l 119 886 l 119 991 l 222 991 m 113 696 l 225 696 l 225 0 l 113 0 l 113 696 z "},"j":{"ha":341,"x_min":-69,"x_max":231,"o":"m 222 991 l 222 886 l 118 886 l 118 991 l 222 991 m -69 -185 q -37 -190 -51 -189 q -12 -192 -23 -192 q 86 -141 54 -192 q 119 21 119 -90 l 119 696 l 231 696 l 231 72 q 229 -8 231 34 q 219 -90 227 -50 q 197 -167 212 -130 q 159 -231 183 -203 q 99 -275 135 -258 q 14 -291 64 -291 q -68 -282 -25 -291 l -69 -185 z "},"k":{"ha":734,"x_min":121,"x_max":727,"o":"m 233 1012 l 233 398 l 549 696 l 701 696 l 342 368 q 534 184 437 276 q 727 0 631 92 l 578 0 l 233 340 l 233 0 l 121 0 l 121 1012 l 233 1012 z "},"l":{"ha":341,"x_min":114,"x_max":226,"o":"m 226 1012 l 226 0 l 114 0 l 114 1012 l 226 1012 z "},"m":{"ha":1289,"x_min":111,"x_max":1175,"o":"m 224 696 l 227 602 q 323 686 267 659 q 451 713 379 713 q 525 703 490 713 q 589 675 560 693 q 640 632 618 658 q 674 576 661 607 q 775 680 713 647 q 926 713 837 713 q 1048 689 1000 713 q 1125 625 1097 665 q 1164 535 1153 586 q 1175 431 1175 485 l 1175 0 l 1063 0 l 1063 378 q 1058 465 1063 422 q 1036 544 1053 509 q 985 600 1019 578 q 893 622 951 622 q 812 603 848 622 q 752 553 777 585 q 714 482 727 522 q 701 398 701 441 l 701 0 l 589 0 l 589 431 q 580 505 589 470 q 550 566 570 540 q 496 607 529 591 q 418 622 464 622 q 336 604 372 622 q 276 555 300 586 q 239 484 252 525 q 227 398 227 444 l 227 0 l 115 0 l 115 516 q 114 607 115 561 q 111 696 113 653 l 224 696 z "},"n":{"ha":825,"x_min":110,"x_max":714,"o":"m 226 0 l 114 0 l 114 528 q 113 590 114 559 q 112 644 113 620 q 110 696 111 671 l 223 696 l 226 600 q 324 685 267 657 q 459 713 381 713 q 585 688 535 713 q 663 617 634 663 q 703 510 692 572 q 714 373 714 448 l 714 0 l 602 0 l 602 360 q 597 468 602 419 q 575 550 592 516 q 526 603 559 585 q 439 622 494 622 q 349 602 388 622 q 282 555 309 583 q 240 496 255 527 q 226 442 226 465 l 226 0 z "},"o":{"ha":840,"x_min":61,"x_max":773,"o":"m 420 713 q 574 684 508 713 q 684 606 640 656 q 751 490 728 557 q 773 348 773 424 q 750 209 773 275 q 681 93 726 142 q 570 14 636 43 q 418 -16 503 -16 q 264 13 331 -16 q 153 90 198 41 q 84 205 108 139 q 61 347 61 271 q 85 489 61 422 q 154 605 109 555 q 267 684 200 655 q 420 713 334 713 m 655 347 q 641 452 655 402 q 597 540 627 503 q 524 600 568 578 q 418 622 479 622 q 314 599 359 622 q 239 538 269 576 q 194 450 209 500 q 178 345 178 399 q 194 242 178 291 q 239 156 209 193 q 315 96 269 118 q 420 74 360 74 q 524 96 480 74 q 597 156 568 119 q 641 243 627 194 q 655 347 655 292 z "},"p":{"ha":840,"x_min":102,"x_max":772,"o":"m 219 -290 l 108 -290 l 108 514 q 107 549 108 528 q 106 594 107 570 q 105 645 106 618 q 102 696 104 671 l 216 696 l 219 597 q 322 684 262 654 q 453 713 382 713 q 595 684 535 713 q 694 607 655 656 q 753 494 734 559 q 772 357 772 430 q 752 217 772 284 q 693 98 732 149 q 593 15 653 46 q 453 -16 533 -16 q 219 92 307 -16 l 219 -290 m 219 335 q 233 231 219 279 q 275 148 248 183 q 343 94 302 113 q 437 74 384 74 q 535 97 494 74 q 602 159 576 120 q 641 248 628 197 q 653 353 653 298 q 642 453 653 405 q 607 539 631 502 q 541 600 582 577 q 441 622 500 622 q 336 598 378 622 q 268 535 294 574 q 230 443 241 495 q 219 335 219 391 z "},"q":{"ha":841,"x_min":63,"x_max":736,"o":"m 619 100 q 511 13 574 41 q 370 -16 448 -16 q 236 12 294 -16 q 140 89 179 40 q 82 202 102 137 q 63 343 63 268 q 83 484 63 417 q 144 602 104 551 q 244 683 184 652 q 385 713 304 713 q 520 686 460 713 q 619 609 581 659 l 623 696 l 736 696 q 732 617 733 656 q 731 551 731 578 l 731 -289 l 619 -289 l 619 100 m 619 368 q 605 471 619 424 q 563 551 590 517 q 494 603 535 585 q 402 622 454 622 q 303 600 345 622 q 234 540 261 578 q 194 452 207 503 q 180 344 180 401 q 193 240 180 290 q 231 154 205 191 q 297 96 256 117 q 395 74 338 74 q 503 99 460 74 q 572 166 546 125 q 609 261 598 208 q 619 368 619 313 z "},"r":{"ha":500,"x_min":109,"x_max":486,"o":"m 225 0 l 113 0 l 113 528 q 112 614 113 571 q 109 696 111 656 l 221 696 l 225 591 q 302 680 254 648 q 411 712 351 712 q 484 704 450 712 l 486 599 q 451 611 471 606 q 408 615 431 615 q 333 599 367 615 q 275 553 299 583 q 238 481 252 524 q 225 385 225 438 l 225 0 z "},"s":{"ha":683,"x_min":79,"x_max":614,"o":"m 536 574 q 448 611 499 600 q 340 622 396 622 q 283 615 309 622 q 237 596 256 608 q 207 565 218 583 q 195 525 195 547 q 207 484 195 501 q 238 455 218 467 q 284 432 258 442 q 340 414 311 422 q 398 397 368 406 q 460 376 429 388 q 518 348 490 364 q 567 311 546 332 q 601 260 589 289 q 614 193 614 231 q 589 101 614 140 q 525 36 565 62 q 433 -3 485 10 q 328 -16 382 -16 q 256 -12 292 -16 q 189 2 221 -7 q 129 26 157 12 q 82 64 102 41 l 112 155 q 155 118 130 134 q 207 93 179 102 q 265 78 235 83 q 323 74 295 74 q 393 81 361 74 q 449 102 425 88 q 485 137 472 116 q 498 184 498 157 q 484 235 498 216 q 442 268 469 254 q 379 293 416 282 q 300 317 342 303 q 208 351 249 333 q 138 393 167 369 q 95 448 110 416 q 79 523 79 479 q 101 607 79 571 q 159 666 123 643 q 241 701 195 690 q 334 713 287 713 q 464 700 404 713 q 564 654 523 686 l 536 574 z "},"t":{"ha":494,"x_min":27,"x_max":455,"o":"m 165 623 l 27 623 l 27 696 l 165 696 l 168 880 l 277 912 l 277 696 l 450 696 l 450 623 l 277 623 l 277 208 q 278 160 277 184 q 287 116 279 136 q 311 84 295 96 q 357 71 328 71 q 403 77 379 71 q 455 93 427 83 l 454 9 q 403 -10 431 -4 q 340 -16 375 -16 q 249 4 283 -16 q 196 56 214 23 q 171 132 177 88 q 165 223 165 175 l 165 623 z "},"u":{"ha":825,"x_min":106,"x_max":713,"o":"m 595 696 l 707 696 l 707 167 q 708 82 707 122 q 713 0 709 43 l 597 0 l 595 92 q 366 -16 517 -16 q 275 -4 315 -16 q 207 28 236 8 q 159 77 178 49 q 128 136 140 104 q 112 202 117 168 q 106 271 106 237 l 106 696 l 218 696 l 218 271 q 260 124 218 174 q 392 74 302 74 q 478 92 441 74 q 542 140 516 109 q 582 211 568 170 q 595 296 595 251 l 595 696 z "},"v":{"ha":721,"x_min":9,"x_max":708,"o":"m 9 696 l 133 696 l 323 228 q 335 197 328 216 q 348 158 342 178 q 363 111 355 136 q 377 157 370 135 q 389 196 383 176 q 401 228 395 216 l 588 696 l 708 696 l 414 0 l 300 0 l 9 696 z "},"w":{"ha":1149,"x_min":17,"x_max":1126,"o":"m 136 696 l 305 193 q 311 173 308 184 q 317 151 314 162 q 325 126 321 139 q 332 149 329 137 q 339 169 336 158 q 346 187 342 179 l 526 696 l 638 696 l 806 194 q 812 175 809 186 q 819 153 815 163 q 826 128 822 141 q 835 153 831 140 q 842 174 838 163 q 849 195 846 185 l 1012 696 l 1126 696 l 877 0 l 768 0 l 578 564 l 374 0 l 264 0 l 17 696 l 136 696 z "},"x":{"ha":707,"x_min":14,"x_max":686,"o":"m 285 349 l 26 696 l 164 696 l 357 416 l 555 696 l 677 696 l 420 351 l 686 0 l 549 0 l 347 283 l 142 0 l 14 0 l 285 349 z "},"y":{"ha":725,"x_min":12,"x_max":709,"o":"m 12 696 l 134 696 l 359 116 l 591 696 l 709 696 l 401 -49 q 357 -134 383 -94 q 298 -205 332 -174 q 225 -259 265 -237 q 136 -290 184 -281 l 74 -213 q 168 -176 131 -198 q 229 -130 205 -155 q 266 -80 253 -106 q 288 -29 279 -54 l 300 4 l 12 696 z "},"z":{"ha":650,"x_min":39,"x_max":609,"o":"m 39 60 l 446 604 l 57 604 l 57 696 l 597 696 l 597 637 l 192 91 l 608 91 l 609 0 l 39 0 l 39 60 z "},"{":{"ha":425,"x_min":58,"x_max":384,"o":"m 384 -176 q 296 -163 336 -174 q 227 -131 256 -153 q 181 -75 197 -109 q 165 7 165 -41 l 165 186 q 163 247 165 217 q 151 301 161 277 q 119 342 141 326 q 58 362 98 358 l 58 445 q 109 460 87 448 q 142 493 130 473 q 161 542 155 513 q 168 604 168 570 q 166 689 166 646 q 165 775 166 732 q 176 863 165 825 q 214 929 188 902 q 281 970 239 956 q 384 984 323 984 l 384 899 q 337 892 357 898 q 304 873 317 886 q 284 839 291 860 q 277 785 277 817 l 277 589 q 267 518 277 549 q 244 464 258 487 q 213 427 230 441 q 182 404 197 412 q 229 369 211 390 q 257 322 247 347 q 271 270 267 296 q 275 220 275 243 q 274 147 275 187 q 273 73 273 107 q 279 -6 273 25 q 297 -57 284 -38 q 331 -83 309 -75 q 384 -90 352 -90 l 384 -176 z "},"|":{"ha":339,"x_min":114,"x_max":220,"o":"m 114 -333 l 114 1048 l 220 1048 l 220 -333 l 114 -333 z "},"}":{"ha":425,"x_min":45,"x_max":371,"o":"m 45 -90 q 98 -83 77 -90 q 132 -57 119 -75 q 150 -6 144 -38 q 155 73 155 25 q 155 147 155 107 q 154 220 154 187 q 158 270 154 243 q 172 322 161 296 q 200 369 182 347 q 247 404 218 390 q 215 427 232 412 q 185 464 199 441 q 161 518 171 487 q 152 589 152 549 l 151 785 q 144 839 151 817 q 124 873 138 860 q 91 892 111 886 q 45 899 71 898 l 45 984 q 147 970 105 984 q 215 929 189 956 q 252 863 241 902 q 264 775 264 825 q 262 689 262 732 q 261 604 262 646 q 267 542 261 570 q 286 493 273 513 q 320 460 299 473 q 371 445 341 448 l 370 362 q 309 342 331 358 q 277 301 288 326 q 265 247 267 277 q 263 186 263 217 l 264 7 q 248 -75 264 -41 q 202 -131 231 -109 q 132 -163 172 -153 q 45 -176 92 -174 l 45 -90 z "},"~":{"ha":989,"x_min":128,"x_max":852,"o":"m 333 478 q 388 470 359 478 q 446 450 416 462 q 505 424 476 438 q 561 398 534 410 q 610 378 588 386 q 649 370 633 370 q 690 380 671 370 q 725 407 709 390 q 751 446 740 424 q 767 490 762 467 l 852 464 q 825 389 842 423 q 781 331 807 355 q 722 292 755 306 q 648 278 688 278 q 603 286 628 278 q 550 307 577 294 q 493 333 522 319 q 436 359 464 347 q 382 379 408 371 q 335 387 356 387 q 288 376 309 387 q 250 348 267 366 q 223 308 234 330 q 206 261 212 285 l 128 298 q 153 366 136 334 q 195 423 170 398 q 256 463 221 448 q 333 478 290 478 z "}," ":{"ha":380,"x_min":0,"x_max":0,"o":""},"¡":{"ha":500,"x_min":176,"x_max":321,"o":"m 176 739 l 321 739 l 321 600 l 176 600 l 176 739 m 316 -260 l 184 -260 l 211 471 l 289 471 l 316 -260 z "},"¢":{"ha":806,"x_min":115,"x_max":707,"o":"m 650 543 q 592 592 626 574 q 520 618 559 610 l 486 74 q 675 153 591 79 l 707 59 q 604 5 660 22 q 481 -15 549 -13 l 471 -173 l 384 -173 l 393 -10 q 272 32 324 0 q 185 110 220 63 q 133 216 151 157 q 115 341 115 275 q 137 480 115 414 q 199 596 158 546 q 300 677 240 646 q 438 712 361 708 l 447 855 l 535 855 l 526 708 q 629 675 585 699 q 701 616 673 652 l 650 543 m 233 345 q 243 253 233 296 q 273 176 253 210 q 325 118 294 142 q 399 83 357 94 l 432 618 q 348 587 385 611 q 285 526 311 563 q 246 443 260 490 q 233 345 233 397 z "},"£":{"ha":806,"x_min":77,"x_max":733,"o":"m 685 839 q 602 874 649 861 q 499 886 554 886 q 412 869 448 886 q 355 819 377 851 q 323 742 333 787 q 314 642 314 697 l 316 564 l 540 564 l 541 468 l 317 468 q 316 358 317 416 q 309 250 315 301 q 290 157 303 198 q 251 96 276 116 l 732 96 l 733 0 l 78 0 l 77 94 q 123 123 100 107 q 163 163 145 140 q 191 219 180 186 q 201 298 201 252 l 201 468 l 79 468 l 77 564 l 201 564 q 201 668 199 617 q 214 766 203 720 q 245 852 224 812 q 299 921 265 892 q 381 966 332 949 q 497 982 429 982 q 625 966 569 982 q 720 920 682 950 l 685 839 z "},"¤":{"ha":845,"x_min":129,"x_max":638,"o":"m 398 713 q 482 701 439 713 l 559 882 l 587 871 l 509 690 q 607 601 576 659 q 638 467 638 543 q 630 395 638 430 q 608 329 623 360 q 571 272 593 298 q 521 228 549 246 l 614 38 l 591 27 l 498 214 q 437 193 469 201 q 370 186 406 186 q 296 195 325 186 l 223 27 l 198 38 l 269 204 q 165 292 201 231 q 129 431 129 352 q 138 509 129 471 q 163 580 146 547 q 206 639 180 613 q 265 682 231 665 l 171 871 l 199 882 l 292 694 q 398 713 336 713 m 574 448 l 574 463 q 564 541 574 505 q 530 605 553 577 q 474 648 508 632 q 392 664 439 664 q 306 645 343 664 q 243 593 269 625 q 205 519 218 561 q 192 433 192 478 q 203 357 192 393 q 238 293 215 321 q 295 250 261 266 q 376 234 330 234 q 459 252 423 234 q 520 299 495 269 q 559 367 545 328 q 574 448 572 406 z "},"¥":{"ha":806,"x_min":18,"x_max":786,"o":"m 461 0 l 345 0 l 345 192 l 74 192 l 66 287 l 343 287 l 343 389 l 70 389 l 70 486 l 319 486 l 18 963 l 157 963 l 353 635 l 408 540 l 465 635 l 660 963 l 786 963 l 477 486 l 724 486 l 724 389 l 459 389 l 459 287 l 726 287 l 726 192 l 461 192 l 461 0 z "},"¦":{"ha":339,"x_min":114,"x_max":220,"o":"m 114 -333 l 114 267 l 220 267 l 220 -333 l 114 -333 m 114 459 l 114 1048 l 220 1048 l 220 459 l 114 459 z "},"§":{"ha":744,"x_min":125,"x_max":618,"o":"m 566 884 q 530 898 549 892 q 489 909 510 905 q 449 917 469 914 q 412 920 429 920 q 355 915 381 920 q 309 899 328 909 q 278 870 289 888 q 267 828 267 852 q 274 791 267 808 q 298 759 281 774 q 343 727 315 743 q 414 693 372 711 q 492 657 455 675 q 557 615 529 638 q 601 564 585 592 q 618 500 618 536 q 607 446 618 471 q 579 399 597 421 q 539 359 562 378 q 492 326 516 340 q 536 298 516 313 q 571 265 557 283 q 594 223 586 247 q 602 171 602 200 q 579 84 602 122 q 519 20 557 46 q 431 -19 481 -6 q 327 -33 381 -33 q 233 -24 280 -33 q 144 3 186 -15 l 142 104 q 238 71 193 81 q 323 60 283 60 q 392 68 361 60 q 443 91 422 77 q 474 123 463 104 q 485 165 485 142 q 475 203 485 187 q 448 232 466 219 q 403 257 429 245 q 342 283 376 269 l 286 308 q 169 385 212 339 q 125 494 125 430 q 136 548 125 524 q 164 594 146 573 q 205 632 182 615 q 254 661 228 648 q 210 693 229 676 q 177 729 191 709 q 157 772 164 749 q 150 825 150 795 q 170 907 150 872 q 226 966 191 943 q 308 1001 261 989 q 409 1013 355 1013 q 488 1005 452 1013 q 564 985 524 997 l 566 884 m 401 371 q 434 394 417 381 q 466 421 452 406 q 488 453 479 435 q 497 490 497 470 q 488 528 497 512 q 463 556 479 544 q 425 579 447 569 q 378 600 404 589 l 363 606 q 349 612 356 609 q 336 618 342 615 q 302 597 318 609 q 273 571 286 585 q 253 540 260 557 q 245 503 245 523 q 257 459 245 477 q 289 426 268 441 q 338 398 309 411 q 401 371 366 385 z "},"¨":{"ha":504,"x_min":83,"x_max":419,"o":"m 193 845 l 83 845 l 83 956 l 194 956 l 193 845 m 419 845 l 308 845 l 308 956 l 419 956 l 419 845 z "},"©":{"ha":1240,"x_min":70,"x_max":1164,"o":"m 847 230 q 637 169 760 169 q 506 194 566 169 q 403 264 446 220 q 336 367 360 308 q 312 494 312 427 q 336 625 312 565 q 403 727 359 684 q 508 795 447 770 q 645 819 570 819 q 844 749 762 819 l 823 668 q 640 732 749 732 q 547 714 588 732 q 476 664 505 696 q 431 589 447 632 q 416 497 416 546 q 431 404 416 447 q 477 328 447 360 q 553 276 508 295 q 659 258 599 258 q 745 271 704 258 q 821 312 786 283 l 847 230 m 156 493 q 172 375 156 431 q 218 271 188 319 q 289 183 248 222 q 382 116 331 144 q 494 73 434 88 q 619 58 553 58 q 801 91 717 58 q 946 183 884 125 q 1043 320 1008 241 q 1078 491 1078 399 q 1062 609 1078 553 q 1017 713 1046 665 q 945 801 987 762 q 852 868 903 840 q 741 911 801 896 q 616 926 682 926 q 435 893 519 926 q 289 802 351 860 q 192 664 227 743 q 156 493 156 585 m 620 -22 q 473 -3 544 -22 q 342 49 403 16 q 231 130 281 83 q 145 234 180 177 q 90 356 109 291 q 70 492 70 422 q 90 628 70 563 q 145 750 109 693 q 231 854 181 807 q 342 935 281 901 q 472 987 403 968 q 616 1006 541 1006 q 762 987 692 1006 q 893 935 832 968 q 1004 853 954 901 q 1089 749 1054 806 q 1145 627 1125 692 q 1164 492 1164 562 q 1145 356 1164 421 q 1089 234 1125 291 q 1004 130 1054 177 q 894 49 954 83 q 764 -3 833 16 q 620 -22 694 -22 z "},"ª":{"ha":505,"x_min":45,"x_max":457,"o":"m 215 521 q 147 531 178 521 q 93 559 116 541 q 58 603 71 577 q 45 661 45 629 q 57 715 45 690 q 91 759 69 740 q 143 790 113 777 q 210 808 174 803 q 288 815 248 814 q 363 821 327 817 l 363 827 q 358 876 363 856 q 341 907 353 895 q 311 923 330 918 q 263 928 292 928 q 222 926 243 928 q 184 916 202 923 q 150 896 165 909 q 121 865 134 884 l 75 916 q 153 982 102 962 q 267 1002 203 1002 q 404 962 355 1002 q 454 844 454 922 l 454 838 l 452 620 q 452 598 452 612 q 454 570 453 585 l 457 533 l 368 533 l 364 583 q 303 538 341 555 q 215 521 266 521 m 229 591 q 289 603 264 591 q 332 635 315 614 q 358 681 349 655 q 368 736 367 707 l 366 753 q 316 746 342 748 q 264 741 290 743 q 216 733 239 738 q 175 721 193 729 q 147 698 157 712 q 137 663 137 684 q 163 608 137 625 q 229 591 189 591 z "},"«":{"ha":784,"x_min":167,"x_max":711,"o":"m 353 620 l 462 620 l 282 367 l 456 116 l 349 116 l 167 367 l 353 620 m 604 620 l 711 620 l 533 367 l 707 116 l 600 116 l 418 367 l 604 620 z "},"¬":{"ha":989,"x_min":136,"x_max":846,"o":"m 745 161 l 745 447 l 136 447 l 136 541 l 846 541 l 846 161 l 745 161 z "},"®":{"ha":1240,"x_min":70,"x_max":1164,"o":"m 505 450 l 505 185 l 405 185 l 405 808 l 590 808 q 810 763 739 808 q 882 634 882 718 q 872 574 882 603 q 840 523 861 546 q 784 484 818 500 q 703 462 749 468 q 741 420 722 444 q 780 368 760 396 q 820 307 800 339 q 861 242 840 275 l 895 185 l 781 185 l 698 329 q 647 404 672 374 q 598 450 623 435 l 505 450 m 504 531 l 589 531 q 667 534 632 531 q 726 546 702 536 q 764 574 751 556 q 777 624 777 593 q 767 678 777 658 q 733 709 756 699 q 673 724 710 720 q 583 727 636 727 l 503 727 l 504 531 m 619 58 q 744 73 684 58 q 854 116 803 88 q 946 183 905 144 q 1017 271 988 222 q 1062 374 1046 319 q 1078 491 1078 430 q 1062 609 1078 553 q 1017 713 1046 665 q 945 801 987 762 q 852 868 903 840 q 741 911 801 896 q 616 926 682 926 q 435 893 519 926 q 289 801 351 860 q 192 664 227 743 q 156 493 156 585 q 172 375 156 431 q 218 271 188 319 q 289 183 248 222 q 382 116 331 144 q 494 73 434 88 q 619 58 553 58 m 620 -22 q 473 -3 544 -22 q 342 49 403 16 q 231 130 281 83 q 145 234 180 177 q 90 356 109 291 q 70 492 70 422 q 90 628 70 563 q 145 750 109 693 q 231 854 181 807 q 342 935 281 901 q 472 987 403 968 q 616 1006 541 1006 q 762 987 692 1006 q 893 935 832 968 q 1004 853 954 901 q 1089 749 1054 806 q 1145 627 1125 692 q 1164 492 1164 562 q 1145 356 1164 421 q 1089 234 1125 291 q 1004 130 1054 177 q 894 49 954 83 q 764 -3 833 16 q 620 -22 694 -22 z "},"¯":{"ha":576,"x_min":-2,"x_max":578,"o":"m 578 936 l -2 936 l -2 1024 l 578 1024 l 578 936 z "},"°":{"ha":572,"x_min":64,"x_max":497,"o":"m 281 901 q 230 891 254 901 q 188 866 206 882 q 160 828 170 850 q 149 781 149 806 q 159 732 149 755 q 188 694 170 710 q 229 668 205 677 q 281 659 253 659 q 332 668 308 659 q 374 694 356 677 q 402 732 392 710 q 412 781 412 755 q 402 828 412 806 q 373 866 391 850 q 331 891 355 882 q 281 901 307 901 m 281 580 q 198 596 237 580 q 129 639 159 612 q 82 702 99 666 q 64 780 64 739 q 82 858 64 821 q 129 921 99 894 q 197 964 158 948 q 281 979 237 979 q 364 964 325 979 q 433 921 404 948 q 480 858 463 894 q 497 780 497 821 q 480 702 497 739 q 433 639 463 666 q 363 596 403 612 q 281 580 324 580 z "},"±":{"ha":989,"x_min":127,"x_max":847,"o":"m 136 0 l 136 94 l 847 94 l 847 0 l 136 0 m 437 497 l 437 751 l 538 751 l 538 497 l 844 497 l 844 404 l 541 404 l 541 151 l 439 151 l 439 404 l 127 404 l 127 497 l 437 497 z "},"²":{"ha":807,"x_min":192,"x_max":563,"o":"m 192 410 l 192 485 l 256 544 q 333 616 294 578 q 404 689 372 653 q 455 759 435 726 q 475 821 475 793 q 450 877 475 856 q 380 897 425 897 q 306 873 338 897 q 255 808 275 850 l 197 861 q 270 946 221 916 q 385 977 319 977 q 455 966 422 977 q 512 935 488 955 q 549 886 536 915 q 563 823 563 858 q 544 738 563 779 q 491 657 524 697 q 412 575 458 616 q 315 490 367 534 l 562 490 l 562 410 l 192 410 z "},"³":{"ha":807,"x_min":159,"x_max":529,"o":"m 159 909 q 236 958 191 939 q 330 977 281 977 q 399 967 366 977 q 458 937 433 957 q 499 889 484 918 q 515 823 515 860 q 496 751 515 783 q 442 700 477 719 q 506 648 483 682 q 529 566 529 614 q 513 496 529 527 q 469 443 496 465 q 404 409 441 420 q 326 397 367 397 q 235 414 277 397 q 159 463 192 431 l 200 528 q 323 475 257 475 q 369 481 347 475 q 407 499 391 488 q 432 529 422 511 q 441 568 441 546 q 431 610 441 593 q 402 638 421 627 q 356 654 383 649 q 296 659 329 659 q 290 658 293 659 q 286 658 288 658 l 258 658 l 258 739 l 291 739 q 345 743 320 739 q 387 756 369 747 q 415 782 405 766 q 425 821 425 798 q 417 855 425 840 q 397 879 410 869 q 367 892 385 888 q 329 897 350 897 q 260 882 292 897 q 199 844 228 867 l 159 909 z "},"´":{"ha":412,"x_min":119,"x_max":416,"o":"m 272 1012 l 416 1012 l 207 795 l 119 795 l 272 1012 z "},"µ":{"ha":825,"x_min":106,"x_max":713,"o":"m 106 696 l 218 696 l 218 271 q 260 124 218 174 q 392 74 302 74 q 478 92 441 74 q 542 140 516 109 q 582 211 568 170 q 595 296 595 251 l 595 696 l 707 696 l 707 167 q 708 82 707 122 q 713 0 709 43 l 597 0 l 595 92 q 366 -16 517 -16 q 283 -6 319 -16 q 218 21 247 4 l 218 -137 l 106 -137 l 106 696 z "},"¶":{"ha":823,"x_min":73,"x_max":684,"o":"m 300 -100 l 300 533 q 212 551 254 534 q 140 598 171 568 q 91 671 109 629 q 73 766 73 714 q 101 872 73 830 q 177 939 129 914 q 289 974 225 964 q 422 984 352 984 l 684 984 l 684 900 l 625 900 l 625 -100 l 538 -100 l 538 900 l 397 900 l 397 -100 l 300 -100 z "},"·":{"ha":301,"x_min":52,"x_max":199,"o":"m 199 348 l 52 348 l 52 490 l 199 490 l 199 348 z "},"¸":{"ha":359,"x_min":35,"x_max":317,"o":"m 41 -196 q 96 -208 71 -203 q 143 -212 122 -212 q 203 -199 186 -212 q 220 -163 220 -185 q 200 -125 220 -136 q 146 -114 179 -114 q 137 -115 144 -114 q 121 -116 130 -115 l 100 -117 l 122 12 l 188 12 l 176 -61 q 230 -67 204 -62 q 275 -85 256 -73 q 306 -116 294 -98 q 317 -162 317 -135 q 305 -209 317 -189 q 270 -242 292 -229 q 218 -262 248 -256 q 154 -269 189 -269 q 97 -264 127 -269 q 35 -254 66 -260 l 41 -196 z "},"¹":{"ha":807,"x_min":162,"x_max":431,"o":"m 163 904 q 226 929 199 916 q 277 958 253 943 l 348 968 l 348 488 l 431 488 l 431 410 l 183 410 l 183 490 l 266 490 l 266 725 q 266 769 266 747 q 265 814 265 791 l 265 862 q 216 838 243 850 q 162 816 189 826 l 163 904 z "},"º":{"ha":559,"x_min":36,"x_max":525,"o":"m 281 1001 q 387 982 341 1001 q 463 931 432 964 q 509 855 494 899 q 525 760 525 811 q 509 667 525 711 q 462 591 493 623 q 386 539 431 558 q 282 520 341 520 q 175 539 221 520 q 98 590 130 557 q 52 667 67 623 q 36 762 36 711 q 52 856 36 812 q 100 931 68 899 q 177 982 132 964 q 281 1001 222 1001 m 131 762 q 140 696 131 727 q 168 643 149 665 q 216 607 187 620 q 282 593 244 593 q 346 607 318 593 q 393 643 374 620 q 421 695 412 665 q 431 759 431 726 q 421 825 431 794 q 393 879 412 856 q 345 915 374 902 q 280 928 317 928 q 216 915 244 928 q 170 879 189 902 q 141 826 151 856 q 131 762 131 795 z "},"»":{"ha":784,"x_min":112,"x_max":675,"o":"m 488 116 l 382 116 l 559 368 l 387 620 l 492 620 l 675 368 l 488 116 m 220 116 l 112 116 l 292 368 l 117 620 l 224 620 l 407 368 l 220 116 z "},"¼":{"ha":1347,"x_min":162,"x_max":1141,"o":"m 163 904 q 226 929 199 916 q 277 958 253 943 l 348 968 l 348 488 l 431 488 l 431 410 l 183 410 l 183 490 l 266 490 l 266 725 q 266 769 266 747 q 265 814 265 791 l 265 862 q 216 838 243 850 q 162 816 189 826 l 163 904 m 1011 974 l 399 0 l 296 0 l 910 974 l 1011 974 m 978 25 l 978 153 l 722 153 l 722 214 l 970 566 l 1061 566 l 1061 225 l 1135 225 l 1141 153 l 1059 153 l 1059 25 l 978 25 m 977 225 l 977 347 l 979 453 l 816 225 l 977 225 z "},"½":{"ha":1260,"x_min":162,"x_max":1093,"o":"m 163 904 q 226 929 199 916 q 277 958 253 943 l 348 968 l 348 488 l 431 488 l 431 410 l 183 410 l 183 490 l 266 490 l 266 725 q 266 769 266 747 q 265 814 265 791 l 265 862 q 216 838 243 850 q 162 816 189 826 l 163 904 m 972 974 l 359 0 l 257 0 l 871 974 l 972 974 m 722 -17 l 722 58 l 786 117 q 862 189 823 152 q 933 263 901 227 q 985 333 965 299 q 1005 395 1005 366 q 980 450 1005 429 q 910 471 955 471 q 836 447 867 471 q 785 382 804 423 l 727 435 q 800 520 751 490 q 914 550 849 550 q 985 539 952 550 q 1041 508 1017 528 q 1079 460 1065 488 q 1093 396 1093 431 q 1073 311 1093 352 q 1021 230 1054 271 q 942 149 987 190 q 845 63 897 108 l 1092 63 l 1092 -17 l 722 -17 z "},"¾":{"ha":1303,"x_min":122,"x_max":1120,"o":"m 122 909 q 199 958 153 939 q 293 977 244 977 q 362 967 328 977 q 421 937 395 957 q 462 889 446 918 q 477 823 477 860 q 459 751 477 783 q 405 700 440 719 q 469 648 446 682 q 492 566 492 614 q 475 496 492 527 q 431 443 459 465 q 367 409 404 420 q 289 397 330 397 q 197 414 240 397 q 122 463 155 431 l 163 528 q 286 475 220 475 q 332 481 310 475 q 369 499 353 488 q 395 529 385 511 q 404 568 404 546 q 394 610 404 593 q 365 638 384 627 q 319 654 346 649 q 258 659 292 659 q 253 658 256 659 q 248 658 250 658 l 220 658 l 220 739 l 254 739 q 307 743 283 739 q 350 756 332 747 q 377 782 368 766 q 387 821 387 798 q 380 855 387 840 q 360 879 373 869 q 330 892 347 888 q 292 897 313 897 q 223 882 255 897 q 161 844 191 867 l 122 909 m 1002 974 l 389 0 l 287 0 l 901 974 l 1002 974 m 957 28 l 957 155 l 701 155 l 701 217 l 949 568 l 1040 568 l 1040 228 l 1114 228 l 1120 155 l 1038 155 l 1038 28 l 957 28 m 956 228 l 956 350 l 958 456 l 795 228 l 956 228 z "},"¿":{"ha":700,"x_min":99,"x_max":585,"o":"m 467 476 q 471 435 469 456 q 473 399 472 418 q 474 366 474 380 q 455 290 474 325 q 407 224 435 256 q 344 164 378 193 q 281 103 310 134 q 233 38 252 72 q 214 -37 214 3 q 230 -103 214 -76 q 273 -148 246 -130 q 335 -173 300 -165 q 408 -180 370 -180 q 499 -169 454 -180 q 585 -134 544 -157 l 585 -233 q 486 -267 536 -256 q 394 -277 437 -277 q 278 -262 332 -277 q 184 -218 224 -248 q 122 -145 144 -189 q 99 -43 99 -102 q 119 39 99 0 q 169 114 139 78 q 233 184 199 151 q 298 250 268 218 q 348 314 328 282 q 368 378 368 346 q 366 410 368 393 q 361 442 363 427 q 356 476 359 460 l 467 476 m 338 733 l 486 733 l 486 591 l 338 591 l 338 733 z "},"À":{"ha":966,"x_min":9,"x_max":954,"o":"m 135 0 l 9 0 l 418 987 l 544 987 l 954 0 l 825 0 l 714 269 l 241 269 l 135 0 m 278 370 l 674 370 l 515 780 q 504 810 510 793 q 492 843 498 827 q 479 880 486 861 q 466 839 473 859 q 454 805 460 822 q 444 779 448 789 l 278 370 m 327 1303 l 472 1303 l 640 1086 l 552 1086 l 327 1303 z "},"Á":{"ha":966,"x_min":9,"x_max":954,"o":"m 135 0 l 9 0 l 418 987 l 544 987 l 954 0 l 825 0 l 714 269 l 241 269 l 135 0 m 278 370 l 674 370 l 515 780 q 504 810 510 793 q 492 843 498 827 q 479 880 486 861 q 466 839 473 859 q 454 805 460 822 q 444 779 448 789 l 278 370 m 488 1303 l 631 1303 l 422 1086 l 334 1086 l 488 1303 z "},"Â":{"ha":966,"x_min":9,"x_max":954,"o":"m 135 0 l 9 0 l 418 987 l 544 987 l 954 0 l 825 0 l 714 269 l 241 269 l 135 0 m 278 370 l 674 370 l 515 780 q 504 810 510 793 q 492 843 498 827 q 479 880 486 861 q 466 839 473 859 q 454 805 460 822 q 444 779 448 789 l 278 370 m 275 1085 l 429 1305 l 536 1305 l 691 1085 l 602 1085 l 481 1232 l 360 1085 l 275 1085 z "},"Ã":{"ha":966,"x_min":9,"x_max":954,"o":"m 135 0 l 9 0 l 418 987 l 544 987 l 954 0 l 825 0 l 714 269 l 241 269 l 135 0 m 278 370 l 674 370 l 515 780 q 504 810 510 793 q 492 843 498 827 q 479 880 486 861 q 466 839 473 859 q 454 805 460 822 q 444 779 448 789 l 278 370 m 701 1265 q 688 1208 698 1234 q 661 1161 678 1181 q 621 1130 644 1141 q 569 1119 598 1119 q 527 1126 549 1119 q 482 1142 505 1133 q 438 1158 460 1151 q 397 1165 416 1165 q 336 1107 342 1165 l 264 1107 q 278 1165 267 1139 q 306 1211 289 1192 q 347 1240 323 1230 q 399 1250 371 1250 q 445 1243 423 1250 q 488 1227 467 1236 q 529 1211 509 1218 q 569 1204 549 1204 q 608 1219 592 1204 q 628 1265 624 1234 l 701 1265 z "},"Ä":{"ha":966,"x_min":9,"x_max":954,"o":"m 135 0 l 9 0 l 418 987 l 544 987 l 954 0 l 825 0 l 714 269 l 241 269 l 135 0 m 278 370 l 674 370 l 515 780 q 504 810 510 793 q 492 843 498 827 q 479 880 486 861 q 466 839 473 859 q 454 805 460 822 q 444 779 448 789 l 278 370 m 425 1137 l 315 1137 l 315 1247 l 426 1247 l 425 1137 m 651 1137 l 540 1137 l 540 1247 l 651 1247 l 651 1137 z "},"Å":{"ha":966,"x_min":9,"x_max":954,"o":"m 135 0 l 9 0 l 418 987 l 544 987 l 954 0 l 825 0 l 714 269 l 241 269 l 135 0 m 278 370 l 674 370 l 515 780 q 504 810 510 793 q 492 843 498 827 q 479 880 486 861 q 466 839 473 859 q 454 805 460 822 q 444 779 448 789 l 278 370 m 557 1200 q 552 1228 557 1215 q 536 1251 546 1241 q 512 1266 526 1260 q 482 1272 498 1272 q 454 1266 467 1272 q 430 1251 440 1260 q 414 1228 420 1241 q 408 1200 408 1215 q 428 1149 408 1169 q 482 1129 448 1129 q 511 1135 497 1129 q 535 1150 524 1141 q 551 1173 545 1160 q 557 1200 557 1186 m 340 1200 q 352 1251 340 1227 q 382 1292 363 1275 q 428 1319 401 1310 q 483 1329 454 1329 q 539 1319 513 1329 q 584 1292 565 1309 q 614 1251 604 1274 q 625 1200 625 1227 q 614 1150 625 1173 q 583 1109 602 1126 q 538 1081 564 1091 q 484 1071 512 1071 q 428 1081 454 1071 q 382 1108 401 1090 q 352 1149 363 1125 q 340 1200 340 1173 z "},"Æ":{"ha":1375,"x_min":3,"x_max":1289,"o":"m 640 887 l 343 370 l 715 370 l 674 887 l 640 887 m 567 987 l 1272 987 l 1274 887 l 786 887 l 812 556 l 1244 556 l 1246 456 l 825 456 l 852 100 l 1287 100 l 1289 0 l 749 0 l 728 270 l 290 270 l 136 0 l 3 0 l 567 987 z "},"Ç":{"ha":949,"x_min":73,"x_max":876,"o":"m 807 827 q 565 905 703 905 q 451 888 503 905 q 358 842 399 871 q 287 772 317 812 q 237 686 257 732 q 207 587 217 639 q 197 483 197 535 q 218 331 197 403 q 283 204 239 258 q 393 117 326 149 q 550 85 459 85 q 707 109 633 85 q 836 182 781 133 l 876 86 q 726 10 812 35 q 532 -16 640 -16 q 335 24 420 -16 q 191 131 250 63 q 103 290 133 199 q 73 484 73 380 q 88 619 73 553 q 131 743 102 685 q 200 849 159 801 q 295 932 241 898 q 412 986 348 967 q 552 1006 477 1006 q 717 981 644 1006 q 851 901 789 956 l 807 827 m 338 -196 q 394 -208 368 -203 q 441 -212 420 -212 q 501 -199 484 -212 q 518 -163 518 -185 q 497 -125 518 -136 q 444 -114 477 -114 q 435 -115 442 -114 q 419 -116 427 -115 l 397 -117 l 420 12 l 486 12 l 473 -61 q 528 -67 502 -62 q 573 -85 553 -73 q 604 -116 592 -98 q 615 -162 615 -135 q 603 -209 615 -189 q 568 -242 590 -229 q 516 -262 546 -256 q 452 -269 486 -269 q 395 -264 425 -269 q 333 -254 364 -260 l 338 -196 z "},"È":{"ha":826,"x_min":139,"x_max":747,"o":"m 747 0 l 139 0 l 139 987 l 727 987 l 727 887 l 256 887 l 256 556 l 701 556 l 701 456 l 256 456 l 256 100 l 747 100 l 747 0 m 256 1303 l 401 1303 l 569 1086 l 481 1086 l 256 1303 z "},"É":{"ha":826,"x_min":139,"x_max":747,"o":"m 747 0 l 139 0 l 139 987 l 727 987 l 727 887 l 256 887 l 256 556 l 701 556 l 701 456 l 256 456 l 256 100 l 747 100 l 747 0 m 418 1303 l 562 1303 l 353 1086 l 264 1086 l 418 1303 z "},"Ê":{"ha":826,"x_min":139,"x_max":747,"o":"m 747 0 l 139 0 l 139 987 l 727 987 l 727 887 l 256 887 l 256 556 l 701 556 l 701 456 l 256 456 l 256 100 l 747 100 l 747 0 m 205 1085 l 359 1305 l 466 1305 l 621 1085 l 532 1085 l 411 1232 l 290 1085 l 205 1085 z "},"Ë":{"ha":826,"x_min":139,"x_max":747,"o":"m 747 0 l 139 0 l 139 987 l 727 987 l 727 887 l 256 887 l 256 556 l 701 556 l 701 456 l 256 456 l 256 100 l 747 100 l 747 0 m 355 1137 l 245 1137 l 245 1247 l 356 1247 l 355 1137 m 581 1137 l 470 1137 l 470 1247 l 581 1247 l 581 1137 z "},"Ì":{"ha":401,"x_min":44,"x_max":357,"o":"m 259 0 l 142 0 l 142 987 l 259 987 l 259 0 m 44 1303 l 189 1303 l 357 1086 l 269 1086 l 44 1303 z "},"Í":{"ha":401,"x_min":53,"x_max":350,"o":"m 259 0 l 142 0 l 142 987 l 259 987 l 259 0 m 206 1303 l 350 1303 l 141 1086 l 53 1086 l 206 1303 z "},"Î":{"ha":401,"x_min":-7,"x_max":410,"o":"m 259 0 l 142 0 l 142 987 l 259 987 l 259 0 m -7 1085 l 148 1305 l 254 1305 l 410 1085 l 320 1085 l 199 1232 l 79 1085 l -7 1085 z "},"Ï":{"ha":401,"x_min":33,"x_max":370,"o":"m 259 0 l 142 0 l 142 987 l 259 987 l 259 0 m 144 1137 l 33 1137 l 33 1247 l 144 1247 l 144 1137 m 370 1137 l 258 1137 l 258 1247 l 370 1247 l 370 1137 z "},"Ð":{"ha":1048,"x_min":-1,"x_max":970,"o":"m 131 446 l 0 446 l -1 539 l 131 539 l 131 987 l 345 987 q 513 977 433 987 q 664 944 594 967 q 790 883 733 921 q 886 790 846 846 q 948 661 926 735 q 970 491 970 587 q 932 288 970 378 q 823 133 895 197 q 648 35 751 69 q 414 0 545 0 l 131 0 l 131 446 m 248 446 l 248 100 l 425 100 q 612 129 532 100 q 743 210 691 158 q 821 333 795 261 q 846 489 846 404 q 815 676 846 600 q 723 800 784 753 q 570 867 661 846 q 359 887 479 887 l 248 887 l 248 539 l 387 539 l 387 446 l 248 446 z "},"Ñ":{"ha":1081,"x_min":131,"x_max":946,"o":"m 131 0 l 131 987 l 271 987 l 777 232 l 830 146 l 830 304 l 830 987 l 946 987 l 946 0 l 805 0 l 296 755 l 248 839 l 248 710 l 248 0 l 131 0 m 759 1265 q 746 1208 755 1234 q 719 1161 736 1181 q 679 1130 702 1141 q 627 1119 656 1119 q 584 1126 606 1119 q 540 1142 562 1133 q 496 1158 517 1151 q 455 1165 474 1165 q 393 1107 400 1165 l 322 1107 q 336 1165 325 1139 q 364 1211 347 1192 q 405 1240 381 1230 q 457 1250 429 1250 q 503 1243 481 1250 q 546 1227 525 1236 q 587 1211 567 1218 q 627 1204 607 1204 q 666 1219 650 1204 q 686 1265 682 1234 l 759 1265 z "},"Ò":{"ha":1128,"x_min":77,"x_max":1047,"o":"m 1047 492 q 1014 287 1047 380 q 919 126 981 194 q 766 22 857 59 q 562 -16 676 -16 q 359 20 449 -16 q 207 123 269 56 q 111 283 144 189 q 77 494 77 378 q 111 699 77 606 q 207 861 144 793 q 361 967 270 929 q 568 1006 452 1006 q 767 969 678 1006 q 918 865 856 932 q 1014 704 981 798 q 1047 492 1047 609 m 202 492 q 225 332 202 406 q 293 203 248 258 q 405 116 338 148 q 561 85 472 85 q 718 116 650 85 q 830 203 785 148 q 897 334 875 258 q 920 498 920 410 q 898 659 920 584 q 831 788 876 733 q 719 874 786 843 q 563 905 652 905 q 407 871 474 905 q 294 781 340 838 q 225 649 248 724 q 202 492 202 574 m 408 1303 l 553 1303 l 720 1086 l 633 1086 l 408 1303 z "},"Ó":{"ha":1128,"x_min":77,"x_max":1047,"o":"m 1047 492 q 1014 287 1047 380 q 919 126 981 194 q 766 22 857 59 q 562 -16 676 -16 q 359 20 449 -16 q 207 123 269 56 q 111 283 144 189 q 77 494 77 378 q 111 699 77 606 q 207 861 144 793 q 361 967 270 929 q 568 1006 452 1006 q 767 969 678 1006 q 918 865 856 932 q 1014 704 981 798 q 1047 492 1047 609 m 202 492 q 225 332 202 406 q 293 203 248 258 q 405 116 338 148 q 561 85 472 85 q 718 116 650 85 q 830 203 785 148 q 897 334 875 258 q 920 498 920 410 q 898 659 920 584 q 831 788 876 733 q 719 874 786 843 q 563 905 652 905 q 407 871 474 905 q 294 781 340 838 q 225 649 248 724 q 202 492 202 574 m 568 1303 l 712 1303 l 503 1086 l 415 1086 l 568 1303 z "},"Ô":{"ha":1128,"x_min":77,"x_max":1047,"o":"m 1047 492 q 1014 287 1047 380 q 919 126 981 194 q 766 22 857 59 q 562 -16 676 -16 q 359 20 449 -16 q 207 123 269 56 q 111 283 144 189 q 77 494 77 378 q 111 699 77 606 q 207 861 144 793 q 361 967 270 929 q 568 1006 452 1006 q 767 969 678 1006 q 918 865 856 932 q 1014 704 981 798 q 1047 492 1047 609 m 202 492 q 225 332 202 406 q 293 203 248 258 q 405 116 338 148 q 561 85 472 85 q 718 116 650 85 q 830 203 785 148 q 897 334 875 258 q 920 498 920 410 q 898 659 920 584 q 831 788 876 733 q 719 874 786 843 q 563 905 652 905 q 407 871 474 905 q 294 781 340 838 q 225 649 248 724 q 202 492 202 574 m 355 1085 l 510 1305 l 616 1305 l 772 1085 l 682 1085 l 562 1232 l 441 1085 l 355 1085 z "},"Õ":{"ha":1128,"x_min":77,"x_max":1047,"o":"m 1047 492 q 1014 287 1047 380 q 919 126 981 194 q 766 22 857 59 q 562 -16 676 -16 q 359 20 449 -16 q 207 123 269 56 q 111 283 144 189 q 77 494 77 378 q 111 699 77 606 q 207 861 144 793 q 361 967 270 929 q 568 1006 452 1006 q 767 969 678 1006 q 918 865 856 932 q 1014 704 981 798 q 1047 492 1047 609 m 202 492 q 225 332 202 406 q 293 203 248 258 q 405 116 338 148 q 561 85 472 85 q 718 116 650 85 q 830 203 785 148 q 897 334 875 258 q 920 498 920 410 q 898 659 920 584 q 831 788 876 733 q 719 874 786 843 q 563 905 652 905 q 407 871 474 905 q 294 781 340 838 q 225 649 248 724 q 202 492 202 574 m 782 1265 q 769 1208 779 1234 q 742 1161 759 1181 q 702 1130 725 1141 q 650 1119 679 1119 q 607 1126 629 1119 q 563 1142 585 1133 q 519 1158 541 1151 q 478 1165 497 1165 q 416 1107 423 1165 l 345 1107 q 359 1165 348 1139 q 387 1211 370 1192 q 428 1240 404 1230 q 480 1250 452 1250 q 526 1243 504 1250 q 569 1227 548 1236 q 610 1211 590 1218 q 650 1204 630 1204 q 689 1219 673 1204 q 709 1265 705 1234 l 782 1265 z "},"Ö":{"ha":1128,"x_min":77,"x_max":1047,"o":"m 1047 492 q 1014 287 1047 380 q 919 126 981 194 q 766 22 857 59 q 562 -16 676 -16 q 359 20 449 -16 q 207 123 269 56 q 111 283 144 189 q 77 494 77 378 q 111 699 77 606 q 207 861 144 793 q 361 967 270 929 q 568 1006 452 1006 q 767 969 678 1006 q 918 865 856 932 q 1014 704 981 798 q 1047 492 1047 609 m 202 492 q 225 332 202 406 q 293 203 248 258 q 405 116 338 148 q 561 85 472 85 q 718 116 650 85 q 830 203 785 148 q 897 334 875 258 q 920 498 920 410 q 898 659 920 584 q 831 788 876 733 q 719 874 786 843 q 563 905 652 905 q 407 871 474 905 q 294 781 340 838 q 225 649 248 724 q 202 492 202 574 m 506 1137 l 395 1137 l 395 1247 l 507 1247 l 506 1137 m 732 1137 l 621 1137 l 621 1247 l 732 1247 l 732 1137 z "},"×":{"ha":989,"x_min":218,"x_max":761,"o":"m 559 376 l 761 175 l 690 104 l 490 305 l 288 104 l 218 174 l 419 376 l 218 577 l 288 647 l 490 446 l 690 647 l 761 576 l 559 376 z "},"Ø":{"ha":1128,"x_min":77,"x_max":1047,"o":"m 1047 492 q 1014 287 1047 380 q 919 126 981 194 q 766 22 857 59 q 562 -16 676 -16 q 359 20 449 -16 q 207 123 269 56 q 111 283 144 189 q 77 494 77 378 q 111 699 77 606 q 207 861 144 793 q 361 967 270 929 q 568 1006 452 1006 q 767 969 678 1006 q 918 865 856 932 q 1014 704 981 798 q 1047 492 1047 609 m 202 492 q 225 332 202 406 q 293 203 248 258 q 405 116 338 148 q 561 85 472 85 q 718 116 650 85 q 830 203 785 148 q 897 334 875 258 q 920 498 920 410 q 898 659 920 584 q 831 788 876 733 q 719 874 786 843 q 563 905 652 905 q 407 871 474 905 q 294 781 340 838 q 225 649 248 724 q 202 492 202 574 m 300 -79 l 732 1050 l 845 1050 l 410 -79 l 300 -79 z "},"Ù":{"ha":1039,"x_min":130,"x_max":907,"o":"m 130 987 l 246 987 l 246 370 q 315 158 246 232 q 517 85 383 85 q 630 104 579 85 q 716 160 680 123 q 771 248 751 196 q 790 366 790 300 l 790 987 l 907 987 l 906 374 q 881 210 905 282 q 807 87 856 137 q 684 11 758 37 q 513 -16 610 -16 q 334 12 407 -16 q 215 91 260 40 q 150 212 170 141 q 130 367 130 282 l 130 987 m 363 1303 l 508 1303 l 675 1086 l 588 1086 l 363 1303 z "},"Ú":{"ha":1039,"x_min":130,"x_max":907,"o":"m 130 987 l 246 987 l 246 370 q 315 158 246 232 q 517 85 383 85 q 630 104 579 85 q 716 160 680 123 q 771 248 751 196 q 790 366 790 300 l 790 987 l 907 987 l 906 374 q 881 210 905 282 q 807 87 856 137 q 684 11 758 37 q 513 -16 610 -16 q 334 12 407 -16 q 215 91 260 40 q 150 212 170 141 q 130 367 130 282 l 130 987 m 524 1303 l 668 1303 l 459 1086 l 371 1086 l 524 1303 z "},"Û":{"ha":1039,"x_min":130,"x_max":907,"o":"m 130 987 l 246 987 l 246 370 q 315 158 246 232 q 517 85 383 85 q 630 104 579 85 q 716 160 680 123 q 771 248 751 196 q 790 366 790 300 l 790 987 l 907 987 l 906 374 q 881 210 905 282 q 807 87 856 137 q 684 11 758 37 q 513 -16 610 -16 q 334 12 407 -16 q 215 91 260 40 q 150 212 170 141 q 130 367 130 282 l 130 987 m 311 1085 l 466 1305 l 572 1305 l 728 1085 l 638 1085 l 517 1232 l 397 1085 l 311 1085 z "},"Ü":{"ha":1039,"x_min":130,"x_max":907,"o":"m 130 987 l 246 987 l 246 370 q 315 158 246 232 q 517 85 383 85 q 630 104 579 85 q 716 160 680 123 q 771 248 751 196 q 790 366 790 300 l 790 987 l 907 987 l 906 374 q 881 210 905 282 q 807 87 856 137 q 684 11 758 37 q 513 -16 610 -16 q 334 12 407 -16 q 215 91 260 40 q 150 212 170 141 q 130 367 130 282 l 130 987 m 462 1137 l 351 1137 l 351 1247 l 463 1247 l 462 1137 m 688 1137 l 576 1137 l 576 1247 l 688 1247 l 688 1137 z "},"Ý":{"ha":859,"x_min":7,"x_max":853,"o":"m 368 0 l 368 395 l 7 987 l 136 987 l 429 493 l 724 987 l 853 987 l 485 397 l 485 0 l 368 0 m 434 1303 l 578 1303 l 369 1086 l 281 1086 l 434 1303 z "},"Þ":{"ha":864,"x_min":138,"x_max":814,"o":"m 254 0 l 138 0 l 138 987 l 254 987 l 254 890 l 369 890 q 482 885 427 890 q 587 867 537 880 q 678 833 636 854 q 750 779 720 812 q 797 701 780 746 q 814 594 814 655 q 780 461 814 517 q 690 370 747 406 q 559 317 633 334 q 405 300 486 300 l 254 300 l 254 0 m 254 789 l 254 401 l 431 401 q 534 413 487 401 q 616 447 582 424 q 670 507 650 471 q 689 593 689 543 q 668 690 689 652 q 608 750 646 728 q 516 781 570 772 q 399 789 463 789 l 254 789 z "},"ß":{"ha":852,"x_min":118,"x_max":795,"o":"m 363 165 q 449 96 404 118 q 534 74 494 74 q 586 83 562 74 q 629 111 610 93 q 658 157 647 130 q 669 218 669 184 q 645 311 669 270 q 585 385 622 351 q 501 446 547 418 q 410 500 455 474 l 388 513 l 399 605 q 459 640 430 619 q 510 686 488 660 q 545 743 532 712 q 558 808 558 773 q 547 862 558 838 q 517 903 536 886 q 470 928 498 920 q 409 937 442 937 q 327 919 361 937 q 271 868 293 900 q 239 794 250 837 q 229 704 229 751 q 229 603 229 660 q 229 482 229 546 q 230 352 229 418 q 231 221 231 285 q 231 100 231 157 q 231 0 231 43 l 119 0 l 118 726 q 137 849 117 794 q 194 943 157 904 q 286 1003 232 982 q 410 1025 340 1025 q 526 1008 475 1025 q 613 961 577 991 q 667 892 648 932 q 686 808 686 853 q 664 723 686 763 q 611 649 642 682 q 546 591 580 616 q 488 551 512 566 q 483 547 483 549 q 488 543 483 545 q 596 495 541 522 q 695 433 650 469 q 767 347 739 396 q 795 231 795 298 q 774 130 795 175 q 716 52 752 84 q 633 2 680 20 q 537 -16 587 -16 q 421 11 479 -16 q 319 94 364 37 l 363 165 z "},"à":{"ha":844,"x_min":60,"x_max":754,"o":"m 395 713 q 473 705 437 713 q 538 683 508 697 q 593 648 568 669 q 640 600 618 627 l 644 696 l 754 696 l 751 524 l 751 0 l 640 0 l 641 98 q 600 55 625 76 q 544 19 575 35 q 475 -6 513 3 q 396 -16 437 -16 q 290 0 338 -16 q 205 42 243 15 q 141 104 168 68 q 96 182 113 140 q 69 268 78 223 q 60 355 60 312 q 81 487 60 422 q 143 602 102 551 q 248 682 185 652 q 395 713 311 713 m 408 74 q 497 93 455 74 q 570 150 538 113 q 620 244 602 188 q 640 373 639 300 q 623 473 640 428 q 576 552 606 519 q 502 604 545 585 q 404 622 458 622 q 329 611 362 622 q 270 580 296 600 q 225 534 244 560 q 194 477 206 507 q 176 414 182 447 q 170 350 170 382 q 175 286 170 319 q 189 222 179 253 q 217 165 199 192 q 261 118 235 138 q 323 86 287 98 q 408 74 359 74 m 265 1012 l 410 1012 l 578 795 l 490 795 l 265 1012 z "},"á":{"ha":844,"x_min":60,"x_max":754,"o":"m 395 713 q 473 705 437 713 q 538 683 508 697 q 593 648 568 669 q 640 600 618 627 l 644 696 l 754 696 l 751 524 l 751 0 l 640 0 l 641 98 q 600 55 625 76 q 544 19 575 35 q 475 -6 513 3 q 396 -16 437 -16 q 290 0 338 -16 q 205 42 243 15 q 141 104 168 68 q 96 182 113 140 q 69 268 78 223 q 60 355 60 312 q 81 487 60 422 q 143 602 102 551 q 248 682 185 652 q 395 713 311 713 m 408 74 q 497 93 455 74 q 570 150 538 113 q 620 244 602 188 q 640 373 639 300 q 623 473 640 428 q 576 552 606 519 q 502 604 545 585 q 404 622 458 622 q 329 611 362 622 q 270 580 296 600 q 225 534 244 560 q 194 477 206 507 q 176 414 182 447 q 170 350 170 382 q 175 286 170 319 q 189 222 179 253 q 217 165 199 192 q 261 118 235 138 q 323 86 287 98 q 408 74 359 74 m 427 1012 l 570 1012 l 361 795 l 273 795 l 427 1012 z "},"â":{"ha":844,"x_min":60,"x_max":754,"o":"m 395 713 q 473 705 437 713 q 538 683 508 697 q 593 648 568 669 q 640 600 618 627 l 644 696 l 754 696 l 751 524 l 751 0 l 640 0 l 641 98 q 600 55 625 76 q 544 19 575 35 q 475 -6 513 3 q 396 -16 437 -16 q 290 0 338 -16 q 205 42 243 15 q 141 104 168 68 q 96 182 113 140 q 69 268 78 223 q 60 355 60 312 q 81 487 60 422 q 143 602 102 551 q 248 682 185 652 q 395 713 311 713 m 408 74 q 497 93 455 74 q 570 150 538 113 q 620 244 602 188 q 640 373 639 300 q 623 473 640 428 q 576 552 606 519 q 502 604 545 585 q 404 622 458 622 q 329 611 362 622 q 270 580 296 600 q 225 534 244 560 q 194 477 206 507 q 176 414 182 447 q 170 350 170 382 q 175 286 170 319 q 189 222 179 253 q 217 165 199 192 q 261 118 235 138 q 323 86 287 98 q 408 74 359 74 m 214 793 l 368 1013 l 475 1013 l 630 793 l 541 793 l 420 940 l 299 793 l 214 793 z "},"ã":{"ha":844,"x_min":60,"x_max":754,"o":"m 395 713 q 473 705 437 713 q 538 683 508 697 q 593 648 568 669 q 640 600 618 627 l 644 696 l 754 696 l 751 524 l 751 0 l 640 0 l 641 98 q 600 55 625 76 q 544 19 575 35 q 475 -6 513 3 q 396 -16 437 -16 q 290 0 338 -16 q 205 42 243 15 q 141 104 168 68 q 96 182 113 140 q 69 268 78 223 q 60 355 60 312 q 81 487 60 422 q 143 602 102 551 q 248 682 185 652 q 395 713 311 713 m 408 74 q 497 93 455 74 q 570 150 538 113 q 620 244 602 188 q 640 373 639 300 q 623 473 640 428 q 576 552 606 519 q 502 604 545 585 q 404 622 458 622 q 329 611 362 622 q 270 580 296 600 q 225 534 244 560 q 194 477 206 507 q 176 414 182 447 q 170 350 170 382 q 175 286 170 319 q 189 222 179 253 q 217 165 199 192 q 261 118 235 138 q 323 86 287 98 q 408 74 359 74 m 640 973 q 627 916 637 943 q 600 870 617 890 q 560 839 583 850 q 508 827 537 827 q 466 834 488 827 q 421 850 444 842 q 377 866 399 859 q 336 873 355 873 q 275 816 281 873 l 203 816 q 217 874 206 848 q 245 919 228 900 q 286 948 262 938 q 338 958 310 958 q 384 951 362 958 q 427 935 406 944 q 468 919 448 926 q 508 912 488 912 q 547 927 531 912 q 567 973 563 943 l 640 973 z "},"ä":{"ha":844,"x_min":60,"x_max":754,"o":"m 395 713 q 473 705 437 713 q 538 683 508 697 q 593 648 568 669 q 640 600 618 627 l 644 696 l 754 696 l 751 524 l 751 0 l 640 0 l 641 98 q 600 55 625 76 q 544 19 575 35 q 475 -6 513 3 q 396 -16 437 -16 q 290 0 338 -16 q 205 42 243 15 q 141 104 168 68 q 96 182 113 140 q 69 268 78 223 q 60 355 60 312 q 81 487 60 422 q 143 602 102 551 q 248 682 185 652 q 395 713 311 713 m 408 74 q 497 93 455 74 q 570 150 538 113 q 620 244 602 188 q 640 373 639 300 q 623 473 640 428 q 576 552 606 519 q 502 604 545 585 q 404 622 458 622 q 329 611 362 622 q 270 580 296 600 q 225 534 244 560 q 194 477 206 507 q 176 414 182 447 q 170 350 170 382 q 175 286 170 319 q 189 222 179 253 q 217 165 199 192 q 261 118 235 138 q 323 86 287 98 q 408 74 359 74 m 364 845 l 254 845 l 254 956 l 365 956 l 364 845 m 590 845 l 479 845 l 479 956 l 590 956 l 590 845 z "},"å":{"ha":844,"x_min":60,"x_max":754,"o":"m 395 713 q 473 705 437 713 q 538 683 508 697 q 593 648 568 669 q 640 600 618 627 l 644 696 l 754 696 l 751 524 l 751 0 l 640 0 l 641 98 q 600 55 625 76 q 544 19 575 35 q 475 -6 513 3 q 396 -16 437 -16 q 290 0 338 -16 q 205 42 243 15 q 141 104 168 68 q 96 182 113 140 q 69 268 78 223 q 60 355 60 312 q 81 487 60 422 q 143 602 102 551 q 248 682 185 652 q 395 713 311 713 m 408 74 q 497 93 455 74 q 570 150 538 113 q 620 244 602 188 q 640 373 639 300 q 623 473 640 428 q 576 552 606 519 q 502 604 545 585 q 404 622 458 622 q 329 611 362 622 q 270 580 296 600 q 225 534 244 560 q 194 477 206 507 q 176 414 182 447 q 170 350 170 382 q 175 286 170 319 q 189 222 179 253 q 217 165 199 192 q 261 118 235 138 q 323 86 287 98 q 408 74 359 74 m 496 909 q 491 937 496 924 q 475 959 485 949 q 451 974 465 968 q 421 980 437 980 q 393 974 406 980 q 369 959 379 968 q 353 936 359 949 q 347 909 347 923 q 367 858 347 878 q 421 838 387 838 q 450 843 436 838 q 474 859 463 849 q 490 881 484 868 q 496 909 496 895 m 279 908 q 291 960 279 936 q 321 1001 302 983 q 367 1028 340 1018 q 422 1038 393 1038 q 478 1027 452 1038 q 523 1000 504 1017 q 553 959 543 983 q 564 909 564 935 q 553 858 564 882 q 522 817 541 835 q 477 789 503 800 q 422 779 451 779 q 367 789 393 779 q 321 816 340 799 q 291 857 302 833 q 279 908 279 881 z "},"æ":{"ha":1286,"x_min":96,"x_max":1211,"o":"m 1211 79 q 930 -16 1097 -17 q 757 22 825 -17 q 644 140 689 61 q 590 62 621 90 q 521 17 559 34 q 436 -8 482 -1 q 336 -18 389 -16 q 239 -3 283 -18 q 163 39 195 12 q 114 106 132 66 q 96 195 96 145 q 114 282 96 244 q 165 347 132 320 q 244 388 198 373 q 347 408 290 404 q 467 416 406 414 q 589 420 527 419 l 589 435 q 573 506 584 472 q 541 565 562 539 q 487 605 520 590 q 404 621 454 621 q 342 615 372 621 q 286 598 312 610 q 237 567 259 587 q 199 521 215 548 l 134 585 q 182 644 154 619 q 247 684 211 668 q 323 706 282 699 q 412 713 365 713 q 493 703 454 712 q 564 676 532 694 q 619 632 595 659 q 654 568 642 605 q 704 634 675 607 q 765 680 732 662 q 836 705 799 697 q 911 713 873 713 q 1044 686 987 713 q 1137 611 1100 659 q 1193 501 1175 564 q 1211 368 1211 438 q 1210 353 1211 363 q 1208 332 1210 342 l 701 332 l 701 317 q 714 222 701 262 q 753 147 726 182 q 829 94 780 113 q 933 74 878 75 q 1068 101 1013 75 q 1175 172 1124 127 l 1211 79 m 590 325 q 539 324 564 325 q 488 323 514 323 q 382 318 433 322 q 292 300 332 313 q 229 262 252 287 q 205 197 205 238 q 218 141 205 165 q 252 103 231 118 q 302 82 274 89 q 360 75 330 75 q 470 96 426 75 q 541 150 515 116 q 579 229 568 184 q 590 323 590 274 l 590 325 m 1105 412 q 1105 414 1105 413 q 1093 495 1105 459 q 1056 559 1080 532 q 995 604 1031 587 q 911 621 958 621 q 824 604 862 621 q 760 560 786 588 q 718 496 733 532 q 701 412 703 459 l 1105 412 z "},"ç":{"ha":709,"x_min":62,"x_max":654,"o":"m 597 543 q 518 603 565 584 q 418 622 471 622 q 318 600 362 622 q 243 541 274 578 q 196 453 212 503 q 180 345 180 402 q 194 238 180 288 q 237 152 208 189 q 311 95 267 115 q 417 74 356 74 q 623 153 532 74 l 654 59 q 543 2 604 20 q 408 -16 482 -16 q 257 13 322 -16 q 149 89 193 41 q 84 203 106 138 q 62 341 62 268 q 85 485 62 417 q 153 603 109 553 q 261 683 197 654 q 408 713 326 713 q 552 687 490 713 q 648 616 614 661 l 597 543 m 301 -196 q 357 -208 331 -203 q 404 -212 382 -212 q 464 -199 446 -212 q 481 -163 481 -185 q 460 -125 481 -136 q 407 -114 439 -114 q 397 -115 405 -114 q 382 -116 390 -115 l 360 -117 l 382 12 l 448 12 l 436 -61 q 490 -67 465 -62 q 535 -85 516 -73 q 566 -116 555 -98 q 578 -162 578 -135 q 565 -209 578 -189 q 531 -242 553 -229 q 479 -262 509 -256 q 414 -269 449 -269 q 357 -264 388 -269 q 296 -254 327 -260 l 301 -196 z "},"è":{"ha":795,"x_min":78,"x_max":732,"o":"m 614 413 l 614 422 q 596 503 610 467 q 558 566 583 540 q 499 607 534 593 q 420 622 464 622 q 334 605 372 622 q 269 560 296 589 q 224 494 241 532 q 201 413 208 456 l 614 413 m 705 78 q 580 7 648 29 q 425 -16 511 -16 q 278 11 342 -16 q 169 86 214 38 q 101 200 125 134 q 78 346 78 267 q 101 488 78 421 q 168 604 124 554 q 276 684 212 654 q 420 713 339 713 q 559 687 500 713 q 656 615 618 661 q 713 506 694 569 q 732 369 732 443 q 731 352 732 361 q 730 334 731 342 l 197 334 l 199 303 q 219 210 203 252 q 265 138 236 168 q 336 91 294 107 q 431 74 378 74 q 563 99 503 74 q 670 171 623 124 l 705 78 m 241 1012 l 387 1012 l 554 795 l 467 795 l 241 1012 z "},"é":{"ha":795,"x_min":78,"x_max":732,"o":"m 614 413 l 614 422 q 596 503 610 467 q 558 566 583 540 q 499 607 534 593 q 420 622 464 622 q 334 605 372 622 q 269 560 296 589 q 224 494 241 532 q 201 413 208 456 l 614 413 m 705 78 q 580 7 648 29 q 425 -16 511 -16 q 278 11 342 -16 q 169 86 214 38 q 101 200 125 134 q 78 346 78 267 q 101 488 78 421 q 168 604 124 554 q 276 684 212 654 q 420 713 339 713 q 559 687 500 713 q 656 615 618 661 q 713 506 694 569 q 732 369 732 443 q 731 352 732 361 q 730 334 731 342 l 197 334 l 199 303 q 219 210 203 252 q 265 138 236 168 q 336 91 294 107 q 431 74 378 74 q 563 99 503 74 q 670 171 623 124 l 705 78 m 402 1012 l 546 1012 l 337 795 l 249 795 l 402 1012 z "},"ê":{"ha":795,"x_min":78,"x_max":732,"o":"m 614 413 l 614 422 q 596 503 610 467 q 558 566 583 540 q 499 607 534 593 q 420 622 464 622 q 334 605 372 622 q 269 560 296 589 q 224 494 241 532 q 201 413 208 456 l 614 413 m 705 78 q 580 7 648 29 q 425 -16 511 -16 q 278 11 342 -16 q 169 86 214 38 q 101 200 125 134 q 78 346 78 267 q 101 488 78 421 q 168 604 124 554 q 276 684 212 654 q 420 713 339 713 q 559 687 500 713 q 656 615 618 661 q 713 506 694 569 q 732 369 732 443 q 731 352 732 361 q 730 334 731 342 l 197 334 l 199 303 q 219 210 203 252 q 265 138 236 168 q 336 91 294 107 q 431 74 378 74 q 563 99 503 74 q 670 171 623 124 l 705 78 m 189 793 l 344 1013 l 450 1013 l 606 793 l 516 793 l 395 940 l 275 793 l 189 793 z "},"ë":{"ha":795,"x_min":78,"x_max":732,"o":"m 614 413 l 614 422 q 596 503 610 467 q 558 566 583 540 q 499 607 534 593 q 420 622 464 622 q 334 605 372 622 q 269 560 296 589 q 224 494 241 532 q 201 413 208 456 l 614 413 m 705 78 q 580 7 648 29 q 425 -16 511 -16 q 278 11 342 -16 q 169 86 214 38 q 101 200 125 134 q 78 346 78 267 q 101 488 78 421 q 168 604 124 554 q 276 684 212 654 q 420 713 339 713 q 559 687 500 713 q 656 615 618 661 q 713 506 694 569 q 732 369 732 443 q 731 352 732 361 q 730 334 731 342 l 197 334 l 199 303 q 219 210 203 252 q 265 138 236 168 q 336 91 294 107 q 431 74 378 74 q 563 99 503 74 q 670 171 623 124 l 705 78 m 340 845 l 229 845 l 229 956 l 340 956 l 340 845 m 566 845 l 454 845 l 454 956 l 566 956 l 566 845 z "},"ì":{"ha":341,"x_min":14,"x_max":327,"o":"m 226 0 l 114 0 l 113 696 l 225 696 l 226 0 m 14 1012 l 159 1012 l 327 795 l 239 795 l 14 1012 z "},"í":{"ha":341,"x_min":23,"x_max":320,"o":"m 226 0 l 114 0 l 113 696 l 225 696 l 226 0 m 176 1012 l 320 1012 l 111 795 l 23 795 l 176 1012 z "},"î":{"ha":341,"x_min":-37,"x_max":380,"o":"m 226 0 l 114 0 l 113 696 l 225 696 l 226 0 m -37 793 l 118 1013 l 224 1013 l 380 793 l 290 793 l 170 940 l 49 793 l -37 793 z "},"ï":{"ha":341,"x_min":3,"x_max":340,"o":"m 226 0 l 114 0 l 113 696 l 225 696 l 226 0 m 114 845 l 3 845 l 3 956 l 115 956 l 114 845 m 340 845 l 229 845 l 229 956 l 340 956 l 340 845 z "},"ð":{"ha":807,"x_min":60,"x_max":807,"o":"m 443 1010 q 577 924 519 981 q 673 789 635 868 l 807 789 l 807 696 l 709 696 q 733 582 724 642 q 741 456 741 522 q 718 254 741 342 q 651 106 695 166 q 542 15 606 46 q 394 -16 477 -16 q 255 9 317 -16 q 150 76 193 33 q 83 177 106 119 q 60 302 60 235 q 81 426 60 370 q 143 523 103 482 q 241 586 184 563 q 370 608 298 608 q 519 580 454 608 q 623 490 584 551 l 623 492 q 598 696 623 608 l 420 696 l 420 789 l 560 789 q 489 882 531 842 q 389 954 447 922 l 443 1010 m 388 513 q 295 497 334 513 q 230 452 256 481 q 192 384 204 423 q 179 299 179 345 q 194 212 179 252 q 236 143 209 172 q 302 97 264 113 q 389 80 341 80 q 490 103 448 80 q 559 162 532 125 q 599 246 587 199 q 612 340 612 292 q 612 352 612 345 q 612 363 612 359 q 579 424 601 397 q 529 472 558 452 q 464 503 500 492 q 388 513 429 513 z "},"ñ":{"ha":825,"x_min":110,"x_max":714,"o":"m 226 0 l 114 0 l 114 528 q 113 590 114 559 q 112 644 113 620 q 110 696 111 671 l 223 696 l 226 600 q 324 685 267 657 q 459 713 381 713 q 585 688 535 713 q 663 617 634 663 q 703 510 692 572 q 714 373 714 448 l 714 0 l 602 0 l 602 360 q 597 468 602 419 q 575 550 592 516 q 526 603 559 585 q 439 622 494 622 q 349 602 388 622 q 282 555 309 583 q 240 496 255 527 q 226 442 226 465 l 226 0 m 631 973 q 617 916 627 943 q 591 870 608 890 q 551 839 574 850 q 498 827 528 827 q 456 834 478 827 q 412 850 434 842 q 368 866 389 859 q 327 873 346 873 q 265 816 272 873 l 194 816 q 208 874 197 848 q 236 919 218 900 q 277 948 253 938 q 329 958 300 958 q 375 951 353 958 q 418 935 397 944 q 459 919 439 926 q 498 912 479 912 q 537 927 522 912 q 557 973 553 943 l 631 973 z "},"ò":{"ha":840,"x_min":61,"x_max":773,"o":"m 420 713 q 574 684 508 713 q 684 606 640 656 q 751 490 728 557 q 773 348 773 424 q 750 209 773 275 q 681 93 726 142 q 570 14 636 43 q 418 -16 503 -16 q 264 13 331 -16 q 153 90 198 41 q 84 205 108 139 q 61 347 61 271 q 85 489 61 422 q 154 605 109 555 q 267 684 200 655 q 420 713 334 713 m 655 347 q 641 452 655 402 q 597 540 627 503 q 524 600 568 578 q 418 622 479 622 q 314 599 359 622 q 239 538 269 576 q 194 450 209 500 q 178 345 178 399 q 194 242 178 291 q 239 156 209 193 q 315 96 269 118 q 420 74 360 74 q 524 96 480 74 q 597 156 568 119 q 641 243 627 194 q 655 347 655 292 m 263 1012 l 408 1012 l 576 795 l 488 795 l 263 1012 z "},"ó":{"ha":840,"x_min":61,"x_max":773,"o":"m 420 713 q 574 684 508 713 q 684 606 640 656 q 751 490 728 557 q 773 348 773 424 q 750 209 773 275 q 681 93 726 142 q 570 14 636 43 q 418 -16 503 -16 q 264 13 331 -16 q 153 90 198 41 q 84 205 108 139 q 61 347 61 271 q 85 489 61 422 q 154 605 109 555 q 267 684 200 655 q 420 713 334 713 m 655 347 q 641 452 655 402 q 597 540 627 503 q 524 600 568 578 q 418 622 479 622 q 314 599 359 622 q 239 538 269 576 q 194 450 209 500 q 178 345 178 399 q 194 242 178 291 q 239 156 209 193 q 315 96 269 118 q 420 74 360 74 q 524 96 480 74 q 597 156 568 119 q 641 243 627 194 q 655 347 655 292 m 425 1012 l 568 1012 l 359 795 l 271 795 l 425 1012 z "},"ô":{"ha":840,"x_min":61,"x_max":773,"o":"m 420 713 q 574 684 508 713 q 684 606 640 656 q 751 490 728 557 q 773 348 773 424 q 750 209 773 275 q 681 93 726 142 q 570 14 636 43 q 418 -16 503 -16 q 264 13 331 -16 q 153 90 198 41 q 84 205 108 139 q 61 347 61 271 q 85 489 61 422 q 154 605 109 555 q 267 684 200 655 q 420 713 334 713 m 655 347 q 641 452 655 402 q 597 540 627 503 q 524 600 568 578 q 418 622 479 622 q 314 599 359 622 q 239 538 269 576 q 194 450 209 500 q 178 345 178 399 q 194 242 178 291 q 239 156 209 193 q 315 96 269 118 q 420 74 360 74 q 524 96 480 74 q 597 156 568 119 q 641 243 627 194 q 655 347 655 292 m 212 793 l 366 1013 l 473 1013 l 628 793 l 538 793 l 418 940 l 297 793 l 212 793 z "},"õ":{"ha":840,"x_min":61,"x_max":773,"o":"m 420 713 q 574 684 508 713 q 684 606 640 656 q 751 490 728 557 q 773 348 773 424 q 750 209 773 275 q 681 93 726 142 q 570 14 636 43 q 418 -16 503 -16 q 264 13 331 -16 q 153 90 198 41 q 84 205 108 139 q 61 347 61 271 q 85 489 61 422 q 154 605 109 555 q 267 684 200 655 q 420 713 334 713 m 655 347 q 641 452 655 402 q 597 540 627 503 q 524 600 568 578 q 418 622 479 622 q 314 599 359 622 q 239 538 269 576 q 194 450 209 500 q 178 345 178 399 q 194 242 178 291 q 239 156 209 193 q 315 96 269 118 q 420 74 360 74 q 524 96 480 74 q 597 156 568 119 q 641 243 627 194 q 655 347 655 292 m 638 973 q 625 916 635 943 q 598 870 615 890 q 558 839 581 850 q 506 827 535 827 q 464 834 486 827 q 419 850 441 842 q 375 866 397 859 q 334 873 353 873 q 273 816 279 873 l 201 816 q 215 874 204 848 q 243 919 226 900 q 284 948 260 938 q 336 958 308 958 q 382 951 360 958 q 425 935 404 944 q 466 919 446 926 q 506 912 486 912 q 545 927 529 912 q 565 973 561 943 l 638 973 z "},"ö":{"ha":840,"x_min":61,"x_max":773,"o":"m 420 713 q 574 684 508 713 q 684 606 640 656 q 751 490 728 557 q 773 348 773 424 q 750 209 773 275 q 681 93 726 142 q 570 14 636 43 q 418 -16 503 -16 q 264 13 331 -16 q 153 90 198 41 q 84 205 108 139 q 61 347 61 271 q 85 489 61 422 q 154 605 109 555 q 267 684 200 655 q 420 713 334 713 m 655 347 q 641 452 655 402 q 597 540 627 503 q 524 600 568 578 q 418 622 479 622 q 314 599 359 622 q 239 538 269 576 q 194 450 209 500 q 178 345 178 399 q 194 242 178 291 q 239 156 209 193 q 315 96 269 118 q 420 74 360 74 q 524 96 480 74 q 597 156 568 119 q 641 243 627 194 q 655 347 655 292 m 362 845 l 252 845 l 252 956 l 363 956 l 362 845 m 588 845 l 477 845 l 477 956 l 588 956 l 588 845 z "},"÷":{"ha":989,"x_min":134,"x_max":845,"o":"m 136 329 l 134 423 l 844 423 l 845 329 l 136 329 m 567 592 l 420 592 l 420 734 l 567 734 l 567 592 m 567 14 l 420 14 l 420 157 l 567 157 l 567 14 z "},"ø":{"ha":840,"x_min":61,"x_max":773,"o":"m 420 713 q 529 699 478 713 l 600 866 l 669 844 l 597 673 q 673 617 640 651 q 729 542 707 584 q 762 451 751 500 q 773 348 773 401 q 750 209 773 275 q 681 93 726 142 q 570 14 636 43 q 418 -16 503 -16 q 309 -2 360 -16 l 235 -177 l 168 -155 l 243 23 q 164 79 198 45 q 107 154 130 112 q 73 244 85 195 q 61 347 61 293 q 85 489 61 422 q 154 605 109 555 q 267 684 200 655 q 420 713 334 713 m 178 345 q 185 276 178 310 q 204 213 191 243 q 236 159 217 184 q 281 115 256 134 l 492 612 q 456 619 475 616 q 418 622 438 622 q 314 599 359 622 q 239 538 269 576 q 194 450 209 500 q 178 345 178 399 m 655 347 q 631 481 655 420 q 557 580 607 543 l 346 84 q 420 74 379 74 q 524 96 480 74 q 597 156 568 119 q 641 243 627 194 q 655 347 655 292 z "},"ù":{"ha":825,"x_min":106,"x_max":713,"o":"m 595 696 l 707 696 l 707 167 q 708 82 707 122 q 713 0 709 43 l 597 0 l 595 92 q 366 -16 517 -16 q 275 -4 315 -16 q 207 28 236 8 q 159 77 178 49 q 128 136 140 104 q 112 202 117 168 q 106 271 106 237 l 106 696 l 218 696 l 218 271 q 260 124 218 174 q 392 74 302 74 q 478 92 441 74 q 542 140 516 109 q 582 211 568 170 q 595 296 595 251 l 595 696 m 256 1012 l 401 1012 l 569 795 l 481 795 l 256 1012 z "},"ú":{"ha":825,"x_min":106,"x_max":713,"o":"m 595 696 l 707 696 l 707 167 q 708 82 707 122 q 713 0 709 43 l 597 0 l 595 92 q 366 -16 517 -16 q 275 -4 315 -16 q 207 28 236 8 q 159 77 178 49 q 128 136 140 104 q 112 202 117 168 q 106 271 106 237 l 106 696 l 218 696 l 218 271 q 260 124 218 174 q 392 74 302 74 q 478 92 441 74 q 542 140 516 109 q 582 211 568 170 q 595 296 595 251 l 595 696 m 417 1012 l 561 1012 l 352 795 l 264 795 l 417 1012 z "},"û":{"ha":825,"x_min":106,"x_max":713,"o":"m 595 696 l 707 696 l 707 167 q 708 82 707 122 q 713 0 709 43 l 597 0 l 595 92 q 366 -16 517 -16 q 275 -4 315 -16 q 207 28 236 8 q 159 77 178 49 q 128 136 140 104 q 112 202 117 168 q 106 271 106 237 l 106 696 l 218 696 l 218 271 q 260 124 218 174 q 392 74 302 74 q 478 92 441 74 q 542 140 516 109 q 582 211 568 170 q 595 296 595 251 l 595 696 m 204 793 l 359 1013 l 465 1013 l 621 793 l 531 793 l 410 940 l 290 793 l 204 793 z "},"ü":{"ha":825,"x_min":106,"x_max":713,"o":"m 595 696 l 707 696 l 707 167 q 708 82 707 122 q 713 0 709 43 l 597 0 l 595 92 q 366 -16 517 -16 q 275 -4 315 -16 q 207 28 236 8 q 159 77 178 49 q 128 136 140 104 q 112 202 117 168 q 106 271 106 237 l 106 696 l 218 696 l 218 271 q 260 124 218 174 q 392 74 302 74 q 478 92 441 74 q 542 140 516 109 q 582 211 568 170 q 595 296 595 251 l 595 696 m 355 845 l 244 845 l 244 956 l 355 956 l 355 845 m 581 845 l 469 845 l 469 956 l 581 956 l 581 845 z "},"ý":{"ha":725,"x_min":12,"x_max":709,"o":"m 12 696 l 134 696 l 359 116 l 591 696 l 709 696 l 401 -49 q 357 -134 383 -94 q 298 -205 332 -174 q 225 -259 265 -237 q 136 -290 184 -281 l 74 -213 q 168 -176 131 -198 q 229 -130 205 -155 q 266 -80 253 -106 q 288 -29 279 -54 l 300 4 l 12 696 m 367 1012 l 511 1012 l 302 795 l 214 795 l 367 1012 z "},"þ":{"ha":840,"x_min":107,"x_max":772,"o":"m 219 -290 l 107 -290 l 107 987 l 220 987 l 220 598 q 323 684 263 655 q 453 713 382 713 q 595 684 535 713 q 694 607 655 656 q 753 494 734 559 q 772 357 772 430 q 752 217 772 284 q 693 98 732 149 q 593 15 653 46 q 453 -16 533 -16 q 219 92 307 -16 l 219 -290 m 219 335 q 233 231 219 279 q 275 148 248 183 q 343 94 302 113 q 437 74 384 74 q 535 97 494 74 q 602 159 576 120 q 641 248 628 197 q 653 353 653 298 q 642 453 653 405 q 607 539 631 502 q 541 600 582 577 q 441 622 500 622 q 336 598 378 622 q 268 535 294 574 q 230 443 241 495 q 219 335 219 391 z "},"ÿ":{"ha":725,"x_min":12,"x_max":709,"o":"m 12 696 l 134 696 l 359 116 l 591 696 l 709 696 l 401 -49 q 357 -134 383 -94 q 298 -205 332 -174 q 225 -259 265 -237 q 136 -290 184 -281 l 74 -213 q 168 -176 131 -198 q 229 -130 205 -155 q 266 -80 253 -106 q 288 -29 279 -54 l 300 4 l 12 696 m 304 845 l 194 845 l 194 956 l 305 956 l 304 845 m 530 845 l 419 845 l 419 956 l 530 956 l 530 845 z "},"ı":{"ha":341,"x_min":113,"x_max":226,"o":"m 226 0 l 114 0 l 113 696 l 225 696 l 226 0 z "},"Ł":{"ha":760,"x_min":-14,"x_max":728,"o":"m 728 0 l 137 0 l 137 457 l 29 401 l -14 484 l 137 562 l 137 987 l 254 987 l 254 623 l 440 720 l 483 637 l 254 518 l 254 100 l 726 100 l 728 0 z "},"ł":{"ha":341,"x_min":-23,"x_max":374,"o":"m 226 1012 l 226 612 l 331 667 l 374 585 l 226 508 l 226 0 l 114 0 l 114 450 l 20 401 l -23 484 l 114 555 l 114 1012 l 226 1012 z "},"Œ":{"ha":1423,"x_min":77,"x_max":1345,"o":"m 1345 0 l 781 0 l 781 71 q 679 7 733 29 q 562 -16 624 -16 q 359 20 449 -16 q 207 123 269 56 q 111 283 144 189 q 77 494 77 378 q 111 699 77 606 q 207 861 144 793 q 361 967 270 929 q 568 1006 452 1006 q 681 988 627 1006 q 781 937 734 970 l 781 987 l 1325 987 l 1325 887 l 897 887 l 897 556 l 1299 556 l 1299 456 l 897 456 l 897 100 l 1345 100 l 1345 0 m 561 85 q 683 110 629 85 q 781 180 738 135 l 781 827 q 685 885 739 864 q 563 905 631 905 q 407 871 474 905 q 294 781 340 838 q 225 649 248 724 q 202 492 202 574 q 225 332 202 406 q 293 203 248 258 q 405 116 338 148 q 561 85 472 85 z "},"œ":{"ha":1336,"x_min":62,"x_max":1267,"o":"m 755 319 q 768 222 755 267 q 807 144 781 177 q 872 93 833 111 q 964 74 911 74 q 1092 107 1034 74 q 1185 198 1149 141 l 1245 140 q 1124 19 1200 58 q 956 -19 1048 -19 q 795 21 864 -19 q 693 142 726 60 l 692 140 q 648 68 676 98 q 584 19 621 38 q 505 -10 548 -1 q 414 -19 461 -19 q 265 9 330 -19 q 155 87 199 38 q 86 203 110 137 q 62 345 62 270 q 86 488 62 420 q 156 605 110 555 q 268 685 201 656 q 420 714 335 714 q 588 674 521 714 q 696 557 656 635 q 801 674 734 635 q 961 714 867 714 q 1093 688 1036 714 q 1189 616 1150 663 q 1247 503 1227 569 q 1267 356 1267 437 l 1267 320 l 755 319 m 1149 413 q 1139 496 1150 458 q 1104 563 1127 534 q 1046 606 1081 591 q 965 622 1012 622 q 881 605 918 622 q 816 558 843 587 q 773 492 789 530 q 755 413 758 454 l 1149 413 m 641 347 q 628 455 641 405 q 587 543 614 506 q 517 601 559 580 q 415 622 474 622 q 314 599 357 622 q 240 538 270 576 q 195 450 210 500 q 180 344 180 399 q 194 240 180 289 q 239 154 209 191 q 314 96 269 117 q 420 74 359 74 q 519 96 477 74 q 588 156 561 119 q 628 243 615 194 q 641 347 641 292 z "},"Š":{"ha":844,"x_min":93,"x_max":769,"o":"m 146 184 q 198 138 168 157 q 262 107 229 119 q 331 90 296 96 q 401 85 367 85 q 499 95 454 85 q 576 126 544 106 q 626 177 608 147 q 644 248 644 208 q 621 324 644 292 q 558 380 597 355 q 471 424 520 404 q 370 463 421 443 q 269 507 319 484 q 181 563 220 530 q 119 638 143 595 q 96 743 96 682 q 126 857 96 808 q 207 939 157 906 q 321 989 257 972 q 452 1006 385 1006 q 531 1001 490 1006 q 609 984 572 996 q 679 952 647 972 q 733 901 711 932 l 677 825 q 630 863 656 848 q 575 887 604 878 q 514 901 545 897 q 452 905 483 905 q 370 896 411 905 q 295 869 328 888 q 241 821 262 850 q 220 749 220 791 q 243 674 220 706 q 306 618 267 643 q 394 574 345 594 q 494 532 443 553 q 595 487 546 511 q 683 429 644 463 q 745 352 722 396 q 769 247 769 307 q 753 160 769 199 q 711 93 738 122 q 647 43 684 64 q 568 9 610 22 q 479 -9 526 -3 q 388 -16 433 -16 q 294 -7 338 -16 q 211 18 249 2 q 143 58 173 35 q 93 109 113 81 l 146 184 m 636 1304 l 475 1085 l 369 1085 l 207 1304 l 307 1304 l 418 1158 l 532 1304 l 636 1304 z "},"š":{"ha":683,"x_min":79,"x_max":614,"o":"m 536 574 q 448 611 499 600 q 340 622 396 622 q 283 615 309 622 q 237 596 256 608 q 207 565 218 583 q 195 525 195 547 q 207 484 195 501 q 238 455 218 467 q 284 432 258 442 q 340 414 311 422 q 398 397 368 406 q 460 376 429 388 q 518 348 490 364 q 567 311 546 332 q 601 260 589 289 q 614 193 614 231 q 589 101 614 140 q 525 36 565 62 q 433 -3 485 10 q 328 -16 382 -16 q 256 -12 292 -16 q 189 2 221 -7 q 129 26 157 12 q 82 64 102 41 l 112 155 q 155 118 130 134 q 207 93 179 102 q 265 78 235 83 q 323 74 295 74 q 393 81 361 74 q 449 102 425 88 q 485 137 472 116 q 498 184 498 157 q 484 235 498 216 q 442 268 469 254 q 379 293 416 282 q 300 317 342 303 q 208 351 249 333 q 138 393 167 369 q 95 448 110 416 q 79 523 79 479 q 101 607 79 571 q 159 666 123 643 q 241 701 195 690 q 334 713 287 713 q 464 700 404 713 q 564 654 523 686 l 536 574 m 556 1013 l 395 793 l 289 793 l 127 1013 l 227 1013 l 338 867 l 452 1013 l 556 1013 z "},"Ÿ":{"ha":859,"x_min":7,"x_max":853,"o":"m 368 0 l 368 395 l 7 987 l 136 987 l 429 493 l 724 987 l 853 987 l 485 397 l 485 0 l 368 0 m 386 1137 l 275 1137 l 275 1247 l 387 1247 l 386 1137 m 612 1137 l 500 1137 l 500 1247 l 612 1247 l 612 1137 z "},"Ž":{"ha":829,"x_min":39,"x_max":783,"o":"m 777 0 l 39 0 l 39 62 l 625 887 l 61 887 l 61 987 l 783 987 l 783 928 l 194 100 l 777 100 l 777 0 m 629 1304 l 467 1085 l 361 1085 l 199 1304 l 299 1304 l 410 1158 l 524 1304 l 629 1304 z "},"ž":{"ha":650,"x_min":39,"x_max":609,"o":"m 39 60 l 446 604 l 57 604 l 57 696 l 597 696 l 597 637 l 192 91 l 608 91 l 609 0 l 39 0 l 39 60 m 539 1013 l 378 793 l 272 793 l 110 1013 l 210 1013 l 321 867 l 435 1013 l 539 1013 z "},"ƒ":{"ha":807,"x_min":50,"x_max":684,"o":"m 225 545 l 232 640 l 347 640 q 356 717 351 677 q 371 794 361 757 q 397 864 381 831 q 438 921 413 897 q 499 960 463 945 q 587 974 536 974 q 634 970 609 974 q 684 961 659 967 l 678 863 q 639 874 658 871 q 604 878 620 878 q 554 870 574 878 q 521 850 534 863 q 499 817 507 837 q 487 772 492 798 l 463 640 l 598 640 l 591 545 l 447 545 l 361 81 q 334 -35 349 21 q 291 -133 318 -90 q 223 -200 264 -175 q 120 -225 182 -225 q 50 -214 90 -225 l 58 -121 q 111 -132 87 -132 q 154 -121 136 -132 q 186 -91 173 -110 q 210 -48 200 -73 q 227 5 220 -23 q 256 137 243 70 q 281 273 269 205 q 306 410 294 341 q 330 545 317 478 l 225 545 z "},"Ȁ":{"ha":966,"x_min":9,"x_max":954,"o":"m 135 0 l 9 0 l 418 987 l 544 987 l 954 0 l 825 0 l 714 269 l 241 269 l 135 0 m 278 370 l 674 370 l 515 780 q 504 810 510 793 q 492 843 498 827 q 479 880 486 861 q 466 839 473 859 q 454 805 460 822 q 444 779 448 789 l 278 370 m 446 1088 l 258 1300 l 378 1300 l 527 1088 l 446 1088 m 628 1088 l 441 1300 l 561 1300 l 708 1088 l 628 1088 z "},"ȁ":{"ha":844,"x_min":60,"x_max":754,"o":"m 395 713 q 473 705 437 713 q 538 683 508 697 q 593 648 568 669 q 640 600 618 627 l 644 696 l 754 696 l 751 524 l 751 0 l 640 0 l 641 98 q 600 55 625 76 q 544 19 575 35 q 475 -6 513 3 q 396 -16 437 -16 q 290 0 338 -16 q 205 42 243 15 q 141 104 168 68 q 96 182 113 140 q 69 268 78 223 q 60 355 60 312 q 81 487 60 422 q 143 602 102 551 q 248 682 185 652 q 395 713 311 713 m 408 74 q 497 93 455 74 q 570 150 538 113 q 620 244 602 188 q 640 373 639 300 q 623 473 640 428 q 576 552 606 519 q 502 604 545 585 q 404 622 458 622 q 329 611 362 622 q 270 580 296 600 q 225 534 244 560 q 194 477 206 507 q 176 414 182 447 q 170 350 170 382 q 175 286 170 319 q 189 222 179 253 q 217 165 199 192 q 261 118 235 138 q 323 86 287 98 q 408 74 359 74 m 384 796 l 197 1008 l 316 1008 l 465 796 l 384 796 m 566 796 l 380 1008 l 499 1008 l 646 796 l 566 796 z "},"Ȃ":{"ha":966,"x_min":9,"x_max":954,"o":"m 135 0 l 9 0 l 418 987 l 544 987 l 954 0 l 825 0 l 714 269 l 241 269 l 135 0 m 278 370 l 674 370 l 515 780 q 504 810 510 793 q 492 843 498 827 q 479 880 486 861 q 466 839 473 859 q 454 805 460 822 q 444 779 448 789 l 278 370 m 616 1118 q 597 1157 610 1141 q 565 1184 583 1174 q 524 1200 546 1195 q 479 1205 502 1205 q 436 1201 457 1205 q 397 1186 414 1196 q 367 1159 379 1175 q 351 1118 355 1142 l 292 1118 q 349 1239 298 1200 q 484 1278 399 1278 q 558 1268 524 1278 q 616 1238 591 1258 q 656 1188 641 1218 q 674 1118 671 1158 l 616 1118 z "},"ȃ":{"ha":844,"x_min":60,"x_max":754,"o":"m 395 713 q 473 705 437 713 q 538 683 508 697 q 593 648 568 669 q 640 600 618 627 l 644 696 l 754 696 l 751 524 l 751 0 l 640 0 l 641 98 q 600 55 625 76 q 544 19 575 35 q 475 -6 513 3 q 396 -16 437 -16 q 290 0 338 -16 q 205 42 243 15 q 141 104 168 68 q 96 182 113 140 q 69 268 78 223 q 60 355 60 312 q 81 487 60 422 q 143 602 102 551 q 248 682 185 652 q 395 713 311 713 m 408 74 q 497 93 455 74 q 570 150 538 113 q 620 244 602 188 q 640 373 639 300 q 623 473 640 428 q 576 552 606 519 q 502 604 545 585 q 404 622 458 622 q 329 611 362 622 q 270 580 296 600 q 225 534 244 560 q 194 477 206 507 q 176 414 182 447 q 170 350 170 382 q 175 286 170 319 q 189 222 179 253 q 217 165 199 192 q 261 118 235 138 q 323 86 287 98 q 408 74 359 74 m 555 826 q 536 866 549 849 q 504 893 522 882 q 463 908 485 903 q 418 913 441 913 q 375 909 396 913 q 336 894 353 905 q 306 867 318 884 q 290 826 294 850 l 231 826 q 288 947 237 908 q 423 986 338 986 q 497 976 463 986 q 555 946 530 966 q 595 896 580 926 q 613 826 610 866 l 555 826 z "},"Ȅ":{"ha":826,"x_min":139,"x_max":747,"o":"m 747 0 l 139 0 l 139 987 l 727 987 l 727 887 l 256 887 l 256 556 l 701 556 l 701 456 l 256 456 l 256 100 l 747 100 l 747 0 m 375 1088 l 188 1300 l 307 1300 l 456 1088 l 375 1088 m 557 1088 l 371 1300 l 490 1300 l 637 1088 l 557 1088 z "},"ȅ":{"ha":795,"x_min":78,"x_max":732,"o":"m 614 413 l 614 422 q 596 503 610 467 q 558 566 583 540 q 499 607 534 593 q 420 622 464 622 q 334 605 372 622 q 269 560 296 589 q 224 494 241 532 q 201 413 208 456 l 614 413 m 705 78 q 580 7 648 29 q 425 -16 511 -16 q 278 11 342 -16 q 169 86 214 38 q 101 200 125 134 q 78 346 78 267 q 101 488 78 421 q 168 604 124 554 q 276 684 212 654 q 420 713 339 713 q 559 687 500 713 q 656 615 618 661 q 713 506 694 569 q 732 369 732 443 q 731 352 732 361 q 730 334 731 342 l 197 334 l 199 303 q 219 210 203 252 q 265 138 236 168 q 336 91 294 107 q 431 74 378 74 q 563 99 503 74 q 670 171 623 124 l 705 78 m 360 796 l 173 1008 l 292 1008 l 441 796 l 360 796 m 543 796 l 356 1008 l 475 1008 l 623 796 l 543 796 z "},"Ȇ":{"ha":826,"x_min":139,"x_max":747,"o":"m 747 0 l 139 0 l 139 987 l 727 987 l 727 887 l 256 887 l 256 556 l 701 556 l 701 456 l 256 456 l 256 100 l 747 100 l 747 0 m 546 1118 q 527 1157 541 1141 q 495 1184 513 1174 q 454 1200 476 1195 q 410 1205 432 1205 q 366 1201 387 1205 q 327 1186 345 1196 q 297 1159 309 1175 q 281 1118 285 1142 l 222 1118 q 279 1239 229 1200 q 414 1278 330 1278 q 488 1268 454 1278 q 546 1238 522 1258 q 586 1188 571 1218 q 604 1118 601 1158 l 546 1118 z "},"ȇ":{"ha":795,"x_min":78,"x_max":732,"o":"m 614 413 l 614 422 q 596 503 610 467 q 558 566 583 540 q 499 607 534 593 q 420 622 464 622 q 334 605 372 622 q 269 560 296 589 q 224 494 241 532 q 201 413 208 456 l 614 413 m 705 78 q 580 7 648 29 q 425 -16 511 -16 q 278 11 342 -16 q 169 86 214 38 q 101 200 125 134 q 78 346 78 267 q 101 488 78 421 q 168 604 124 554 q 276 684 212 654 q 420 713 339 713 q 559 687 500 713 q 656 615 618 661 q 713 506 694 569 q 732 369 732 443 q 731 352 732 361 q 730 334 731 342 l 197 334 l 199 303 q 219 210 203 252 q 265 138 236 168 q 336 91 294 107 q 431 74 378 74 q 563 99 503 74 q 670 171 623 124 l 705 78 m 530 826 q 511 866 525 849 q 479 893 498 882 q 438 908 460 903 q 394 913 416 913 q 350 909 372 913 q 311 894 329 905 q 281 867 294 884 q 265 826 269 850 l 206 826 q 263 947 213 908 q 399 986 314 986 q 472 976 439 986 q 531 946 506 966 q 570 896 555 926 q 589 826 585 866 l 530 826 z "},"Ȉ":{"ha":401,"x_min":-24,"x_max":426,"o":"m 259 0 l 142 0 l 142 987 l 259 987 l 259 0 m 163 1088 l -24 1300 l 96 1300 l 245 1088 l 163 1088 m 346 1088 l 159 1300 l 279 1300 l 426 1088 l 346 1088 z "},"ȉ":{"ha":341,"x_min":-54,"x_max":396,"o":"m 226 0 l 114 0 l 113 696 l 225 696 l 226 0 m 134 796 l -54 1008 l 66 1008 l 215 796 l 134 796 m 316 796 l 130 1008 l 249 1008 l 396 796 l 316 796 z "},"Ȋ":{"ha":401,"x_min":10,"x_max":393,"o":"m 259 0 l 142 0 l 142 987 l 259 987 l 259 0 m 334 1118 q 315 1157 329 1141 q 283 1184 302 1174 q 242 1200 264 1195 q 198 1205 220 1205 q 154 1201 176 1205 q 115 1186 133 1196 q 85 1159 98 1175 q 69 1118 73 1142 l 10 1118 q 67 1239 17 1200 q 203 1278 118 1278 q 276 1268 243 1278 q 335 1238 310 1258 q 374 1188 359 1218 q 393 1118 389 1158 l 334 1118 z "},"ȋ":{"ha":341,"x_min":-20,"x_max":363,"o":"m 222 991 l 222 886 l 119 886 l 119 991 l 222 991 m 113 696 l 225 696 l 225 0 l 113 0 l 113 696 m 304 826 q 286 866 299 849 q 253 893 272 882 q 213 908 235 903 q 168 913 191 913 q 124 909 146 913 q 85 894 103 905 q 56 867 68 884 q 39 826 43 850 l -20 826 q 38 947 -13 908 q 173 986 88 986 q 247 976 213 986 q 305 946 280 966 q 345 896 330 926 q 363 826 359 866 l 304 826 z "},"Ȍ":{"ha":1128,"x_min":77,"x_max":1047,"o":"m 1047 492 q 1014 287 1047 380 q 919 126 981 194 q 766 22 857 59 q 562 -16 676 -16 q 359 20 449 -16 q 207 123 269 56 q 111 283 144 189 q 77 494 77 378 q 111 699 77 606 q 207 861 144 793 q 361 967 270 929 q 568 1006 452 1006 q 767 969 678 1006 q 918 865 856 932 q 1014 704 981 798 q 1047 492 1047 609 m 202 492 q 225 332 202 406 q 293 203 248 258 q 405 116 338 148 q 561 85 472 85 q 718 116 650 85 q 830 203 785 148 q 897 334 875 258 q 920 498 920 410 q 898 659 920 584 q 831 788 876 733 q 719 874 786 843 q 563 905 652 905 q 407 871 474 905 q 294 781 340 838 q 225 649 248 724 q 202 492 202 574 m 526 1088 l 339 1300 l 458 1300 l 608 1088 l 526 1088 m 709 1088 l 522 1300 l 642 1300 l 789 1088 l 709 1088 z "},"ȍ":{"ha":840,"x_min":61,"x_max":773,"o":"m 420 713 q 574 684 508 713 q 684 606 640 656 q 751 490 728 557 q 773 348 773 424 q 750 209 773 275 q 681 93 726 142 q 570 14 636 43 q 418 -16 503 -16 q 264 13 331 -16 q 153 90 198 41 q 84 205 108 139 q 61 347 61 271 q 85 489 61 422 q 154 605 109 555 q 267 684 200 655 q 420 713 334 713 m 655 347 q 641 452 655 402 q 597 540 627 503 q 524 600 568 578 q 418 622 479 622 q 314 599 359 622 q 239 538 269 576 q 194 450 209 500 q 178 345 178 399 q 194 242 178 291 q 239 156 209 193 q 315 96 269 118 q 420 74 360 74 q 524 96 480 74 q 597 156 568 119 q 641 243 627 194 q 655 347 655 292 m 382 796 l 195 1008 l 314 1008 l 463 796 l 382 796 m 564 796 l 378 1008 l 497 1008 l 644 796 l 564 796 z "},"Ȏ":{"ha":1128,"x_min":77,"x_max":1047,"o":"m 1047 492 q 1014 287 1047 380 q 919 126 981 194 q 766 22 857 59 q 562 -16 676 -16 q 359 20 449 -16 q 207 123 269 56 q 111 283 144 189 q 77 494 77 378 q 111 699 77 606 q 207 861 144 793 q 361 967 270 929 q 568 1006 452 1006 q 767 969 678 1006 q 918 865 856 932 q 1014 704 981 798 q 1047 492 1047 609 m 202 492 q 225 332 202 406 q 293 203 248 258 q 405 116 338 148 q 561 85 472 85 q 718 116 650 85 q 830 203 785 148 q 897 334 875 258 q 920 498 920 410 q 898 659 920 584 q 831 788 876 733 q 719 874 786 843 q 563 905 652 905 q 407 871 474 905 q 294 781 340 838 q 225 649 248 724 q 202 492 202 574 m 696 1118 q 677 1157 691 1141 q 645 1184 664 1174 q 605 1200 627 1195 q 560 1205 583 1205 q 516 1201 538 1205 q 477 1186 495 1196 q 448 1159 460 1175 q 431 1118 435 1142 l 372 1118 q 430 1239 379 1200 q 565 1278 480 1278 q 638 1268 605 1278 q 697 1238 672 1258 q 736 1188 722 1218 q 755 1118 751 1158 l 696 1118 z "},"ȏ":{"ha":840,"x_min":61,"x_max":773,"o":"m 420 713 q 574 684 508 713 q 684 606 640 656 q 751 490 728 557 q 773 348 773 424 q 750 209 773 275 q 681 93 726 142 q 570 14 636 43 q 418 -16 503 -16 q 264 13 331 -16 q 153 90 198 41 q 84 205 108 139 q 61 347 61 271 q 85 489 61 422 q 154 605 109 555 q 267 684 200 655 q 420 713 334 713 m 655 347 q 641 452 655 402 q 597 540 627 503 q 524 600 568 578 q 418 622 479 622 q 314 599 359 622 q 239 538 269 576 q 194 450 209 500 q 178 345 178 399 q 194 242 178 291 q 239 156 209 193 q 315 96 269 118 q 420 74 360 74 q 524 96 480 74 q 597 156 568 119 q 641 243 627 194 q 655 347 655 292 m 553 826 q 534 866 547 849 q 502 893 520 882 q 461 908 483 903 q 416 913 439 913 q 373 909 394 913 q 334 894 351 905 q 304 867 316 884 q 288 826 292 850 l 229 826 q 286 947 235 908 q 421 986 336 986 q 495 976 461 986 q 553 946 528 966 q 593 896 578 926 q 611 826 608 866 l 553 826 z "},"Ȑ":{"ha":934,"x_min":139,"x_max":873,"o":"m 256 442 l 256 0 l 139 0 l 139 987 l 380 987 q 468 986 420 987 q 564 977 516 985 q 657 954 612 970 q 737 909 702 938 q 792 837 772 881 q 813 728 813 792 q 798 642 813 682 q 755 572 783 603 q 689 519 728 541 q 602 485 650 497 l 603 485 q 671 445 644 471 q 720 377 698 418 q 762 278 741 335 q 814 145 783 220 l 873 0 l 745 0 l 642 284 q 608 361 625 330 q 569 409 591 391 q 515 435 546 427 q 439 442 484 442 l 256 442 m 256 542 l 436 542 q 527 550 481 542 q 609 578 572 558 q 667 631 645 597 q 690 718 690 665 q 671 801 690 768 q 619 853 652 834 q 541 880 586 872 q 444 887 496 887 l 256 887 l 256 542 m 429 1088 l 242 1300 l 361 1300 l 511 1088 l 429 1088 m 612 1088 l 425 1300 l 545 1300 l 692 1088 l 612 1088 z "},"ȑ":{"ha":500,"x_min":26,"x_max":486,"o":"m 225 0 l 113 0 l 113 528 q 112 614 113 571 q 109 696 111 656 l 221 696 l 225 591 q 302 680 254 648 q 411 712 351 712 q 484 704 450 712 l 486 599 q 451 611 471 606 q 408 615 431 615 q 333 599 367 615 q 275 553 299 583 q 238 481 252 524 q 225 385 225 438 l 225 0 m 213 796 l 26 1008 l 145 1008 l 294 796 l 213 796 m 395 796 l 209 1008 l 328 1008 l 475 796 l 395 796 z "},"Ȓ":{"ha":934,"x_min":139,"x_max":873,"o":"m 256 442 l 256 0 l 139 0 l 139 987 l 380 987 q 468 986 420 987 q 564 977 516 985 q 657 954 612 970 q 737 909 702 938 q 792 837 772 881 q 813 728 813 792 q 798 642 813 682 q 755 572 783 603 q 689 519 728 541 q 602 485 650 497 l 603 485 q 671 445 644 471 q 720 377 698 418 q 762 278 741 335 q 814 145 783 220 l 873 0 l 745 0 l 642 284 q 608 361 625 330 q 569 409 591 391 q 515 435 546 427 q 439 442 484 442 l 256 442 m 256 542 l 436 542 q 527 550 481 542 q 609 578 572 558 q 667 631 645 597 q 690 718 690 665 q 671 801 690 768 q 619 853 652 834 q 541 880 586 872 q 444 887 496 887 l 256 887 l 256 542 m 600 1118 q 581 1157 594 1141 q 548 1184 567 1174 q 508 1200 530 1195 q 463 1205 486 1205 q 419 1201 441 1205 q 380 1186 398 1196 q 351 1159 363 1175 q 334 1118 338 1142 l 275 1118 q 333 1239 282 1200 q 468 1278 383 1278 q 542 1268 508 1278 q 600 1238 575 1258 q 640 1188 625 1218 q 658 1118 654 1158 l 600 1118 z "},"ȓ":{"ha":500,"x_min":58,"x_max":486,"o":"m 225 0 l 113 0 l 113 528 q 112 614 113 571 q 109 696 111 656 l 221 696 l 225 591 q 302 680 254 648 q 411 712 351 712 q 484 704 450 712 l 486 599 q 451 611 471 606 q 408 615 431 615 q 333 599 367 615 q 275 553 299 583 q 238 481 252 524 q 225 385 225 438 l 225 0 m 382 826 q 363 866 377 849 q 331 893 350 882 q 291 908 313 903 q 246 913 269 913 q 202 909 224 913 q 163 894 181 905 q 134 867 146 884 q 117 826 121 850 l 58 826 q 116 947 65 908 q 251 986 166 986 q 325 976 291 986 q 383 946 358 966 q 422 896 408 926 q 441 826 437 866 l 382 826 z "},"Ȕ":{"ha":1039,"x_min":130,"x_max":907,"o":"m 130 987 l 246 987 l 246 370 q 315 158 246 232 q 517 85 383 85 q 630 104 579 85 q 716 160 680 123 q 771 248 751 196 q 790 366 790 300 l 790 987 l 907 987 l 906 374 q 881 210 905 282 q 807 87 856 137 q 684 11 758 37 q 513 -16 610 -16 q 334 12 407 -16 q 215 91 260 40 q 150 212 170 141 q 130 367 130 282 l 130 987 m 481 1088 l 294 1300 l 414 1300 l 563 1088 l 481 1088 m 664 1088 l 477 1300 l 597 1300 l 744 1088 l 664 1088 z "},"ȕ":{"ha":825,"x_min":106,"x_max":713,"o":"m 595 696 l 707 696 l 707 167 q 708 82 707 122 q 713 0 709 43 l 597 0 l 595 92 q 366 -16 517 -16 q 275 -4 315 -16 q 207 28 236 8 q 159 77 178 49 q 128 136 140 104 q 112 202 117 168 q 106 271 106 237 l 106 696 l 218 696 l 218 271 q 260 124 218 174 q 392 74 302 74 q 478 92 441 74 q 542 140 516 109 q 582 211 568 170 q 595 296 595 251 l 595 696 m 375 796 l 188 1008 l 307 1008 l 456 796 l 375 796 m 557 796 l 371 1008 l 490 1008 l 637 796 l 557 796 z "},"Ȗ":{"ha":1039,"x_min":130,"x_max":907,"o":"m 130 987 l 246 987 l 246 370 q 315 158 246 232 q 517 85 383 85 q 630 104 579 85 q 716 160 680 123 q 771 248 751 196 q 790 366 790 300 l 790 987 l 907 987 l 906 374 q 881 210 905 282 q 807 87 856 137 q 684 11 758 37 q 513 -16 610 -16 q 334 12 407 -16 q 215 91 260 40 q 150 212 170 141 q 130 367 130 282 l 130 987 m 652 1118 q 633 1157 647 1141 q 601 1184 620 1174 q 561 1200 583 1195 q 516 1205 538 1205 q 472 1201 494 1205 q 433 1186 451 1196 q 404 1159 416 1175 q 387 1118 391 1142 l 328 1118 q 386 1239 335 1200 q 521 1278 436 1278 q 594 1268 561 1278 q 653 1238 628 1258 q 692 1188 677 1218 q 711 1118 707 1158 l 652 1118 z "},"ȗ":{"ha":825,"x_min":106,"x_max":713,"o":"m 595 696 l 707 696 l 707 167 q 708 82 707 122 q 713 0 709 43 l 597 0 l 595 92 q 366 -16 517 -16 q 275 -4 315 -16 q 207 28 236 8 q 159 77 178 49 q 128 136 140 104 q 112 202 117 168 q 106 271 106 237 l 106 696 l 218 696 l 218 271 q 260 124 218 174 q 392 74 302 74 q 478 92 441 74 q 542 140 516 109 q 582 211 568 170 q 595 296 595 251 l 595 696 m 545 826 q 526 866 540 849 q 494 893 513 882 q 453 908 475 903 q 409 913 431 913 q 365 909 387 913 q 326 894 344 905 q 296 867 309 884 q 280 826 284 850 l 221 826 q 278 947 228 908 q 414 986 329 986 q 487 976 454 986 q 546 946 521 966 q 585 896 570 926 q 604 826 600 866 l 545 826 z "},"Ș":{"ha":796,"x_min":93,"x_max":769,"o":"m 146 184 q 198 138 168 157 q 262 107 229 119 q 331 90 296 96 q 401 85 367 85 q 499 95 454 85 q 576 126 544 106 q 626 177 608 147 q 644 248 644 208 q 621 324 644 292 q 558 380 597 355 q 471 424 520 404 q 370 463 421 443 q 269 507 319 484 q 181 563 220 530 q 119 638 143 595 q 96 743 96 682 q 126 857 96 808 q 207 939 157 906 q 321 989 257 972 q 452 1006 385 1006 q 531 1001 490 1006 q 609 984 572 996 q 679 952 647 972 q 733 901 711 932 l 677 825 q 630 863 656 848 q 575 887 604 878 q 514 901 545 897 q 452 905 483 905 q 370 896 411 905 q 295 869 328 888 q 241 821 262 850 q 220 749 220 791 q 243 674 220 706 q 306 618 267 643 q 394 574 345 594 q 494 532 443 553 q 595 487 546 511 q 683 429 644 463 q 745 352 722 396 q 769 247 769 307 q 753 160 769 199 q 711 93 738 122 q 647 43 684 64 q 568 9 610 22 q 479 -9 526 -3 q 388 -16 433 -16 q 294 -7 338 -16 q 211 18 249 2 q 143 58 173 35 q 93 109 113 81 l 146 184 m 371 -110 l 498 -110 l 387 -424 l 298 -424 l 371 -110 z "},"ș":{"ha":494,"x_min":79,"x_max":614,"o":"m 536 574 q 448 611 499 600 q 340 622 396 622 q 283 615 309 622 q 237 596 256 608 q 207 565 218 583 q 195 525 195 547 q 207 484 195 501 q 238 455 218 467 q 284 432 258 442 q 340 414 311 422 q 398 397 368 406 q 460 376 429 388 q 518 348 490 364 q 567 311 546 332 q 601 260 589 289 q 614 193 614 231 q 589 101 614 140 q 525 36 565 62 q 433 -3 485 10 q 328 -16 382 -16 q 256 -12 292 -16 q 189 2 221 -7 q 129 26 157 12 q 82 64 102 41 l 112 155 q 155 118 130 134 q 207 93 179 102 q 265 78 235 83 q 323 74 295 74 q 393 81 361 74 q 449 102 425 88 q 485 137 472 116 q 498 184 498 157 q 484 235 498 216 q 442 268 469 254 q 379 293 416 282 q 300 317 342 303 q 208 351 249 333 q 138 393 167 369 q 95 448 110 416 q 79 523 79 479 q 101 607 79 571 q 159 666 123 643 q 241 701 195 690 q 334 713 287 713 q 464 700 404 713 q 564 654 523 686 l 536 574 m 220 -110 l 347 -110 l 236 -424 l 147 -424 l 220 -110 z "},"Ț":{"ha":796,"x_min":22,"x_max":777,"o":"m 340 0 l 340 887 l 22 887 l 22 987 l 777 987 l 777 887 l 456 887 l 456 0 l 340 0 m 371 -110 l 498 -110 l 387 -424 l 298 -424 l 371 -110 z "},"ț":{"ha":494,"x_min":27,"x_max":455,"o":"m 165 623 l 27 623 l 27 696 l 165 696 l 168 880 l 277 912 l 277 696 l 450 696 l 450 623 l 277 623 l 277 208 q 278 160 277 184 q 287 116 279 136 q 311 84 295 96 q 357 71 328 71 q 403 77 379 71 q 455 93 427 83 l 454 9 q 403 -10 431 -4 q 340 -16 375 -16 q 249 4 283 -16 q 196 56 214 23 q 171 132 177 88 q 165 223 165 175 l 165 623 m 220 -110 l 347 -110 l 236 -424 l 147 -424 l 220 -110 z "},"ˆ":{"ha":474,"x_min":24,"x_max":440,"o":"m 24 793 l 178 1013 l 285 1013 l 440 793 l 351 793 l 230 940 l 109 793 l 24 793 z "},"ˇ":{"ha":474,"x_min":20,"x_max":449,"o":"m 449 1013 l 288 793 l 182 793 l 20 1013 l 119 1013 l 231 867 l 345 1013 l 449 1013 z "},"˘":{"ha":427,"x_min":22,"x_max":404,"o":"m 404 986 q 386 916 401 946 q 346 866 371 886 q 288 836 321 846 q 214 826 254 826 q 79 865 130 826 q 22 986 28 904 l 81 986 q 97 945 85 962 q 127 918 109 928 q 166 903 144 907 q 210 899 187 899 q 254 904 232 899 q 295 919 276 909 q 327 946 313 930 q 346 986 340 963 l 404 986 z "},"˙":{"ha":355,"x_min":125,"x_max":233,"o":"m 126 845 l 125 956 l 231 956 l 233 845 l 126 845 z "},"˚":{"ha":410,"x_min":61,"x_max":346,"o":"m 278 909 q 272 937 278 924 q 256 959 267 949 q 232 974 246 968 q 203 980 218 980 q 174 974 188 980 q 151 959 161 968 q 134 936 140 949 q 128 909 128 923 q 148 858 128 878 q 203 838 168 838 q 231 843 218 838 q 255 859 245 849 q 272 881 266 868 q 278 909 278 895 m 61 908 q 72 960 61 936 q 103 1001 83 983 q 148 1028 122 1018 q 203 1038 174 1038 q 259 1027 233 1038 q 305 1000 286 1017 q 335 959 324 983 q 346 909 346 935 q 334 858 346 882 q 303 817 323 835 q 258 789 284 800 q 204 779 233 779 q 148 789 174 779 q 103 816 122 799 q 72 857 83 833 q 61 908 61 881 z "},"˛":{"ha":345,"x_min":33,"x_max":300,"o":"m 196 -191 q 224 -189 212 -191 q 250 -185 237 -188 q 274 -179 262 -183 q 300 -170 286 -175 l 300 -245 q 276 -253 290 -249 q 245 -259 262 -256 q 212 -263 229 -261 q 180 -264 195 -264 q 122 -257 149 -264 q 76 -235 96 -250 q 44 -200 56 -221 q 33 -153 33 -180 q 45 -103 33 -127 q 78 -60 58 -80 q 124 -23 98 -40 q 178 8 151 -5 l 266 0 q 211 -36 236 -18 q 168 -70 186 -53 q 139 -102 149 -86 q 128 -135 128 -119 q 134 -158 128 -148 q 150 -175 140 -168 q 172 -186 159 -182 q 196 -191 184 -191 z "},"˜":{"ha":450,"x_min":9,"x_max":446,"o":"m 446 973 q 433 916 443 943 q 406 870 423 890 q 366 839 389 850 q 314 827 343 827 q 272 834 294 827 q 227 850 250 842 q 183 866 205 859 q 142 873 161 873 q 81 816 87 873 l 9 816 q 23 874 12 848 q 51 919 34 900 q 92 948 68 938 q 144 958 116 958 q 190 951 168 958 q 233 935 212 944 q 274 919 254 926 q 314 912 294 912 q 353 927 337 912 q 373 973 369 943 l 446 973 z "},"˝":{"ha":657,"x_min":110,"x_max":559,"o":"m 291 796 l 440 1008 l 559 1008 l 372 796 l 291 796 m 110 796 l 257 1008 l 376 1008 l 190 796 l 110 796 z "},"̏":{"ha":657,"x_min":110,"x_max":559,"o":"m 297 796 l 110 1008 l 229 1008 l 378 796 l 297 796 m 479 796 l 293 1008 l 412 1008 l 559 796 l 479 796 z "},"̑":{"ha":427,"x_min":22,"x_max":404,"o":"m 346 826 q 327 866 340 849 q 295 893 313 882 q 254 908 276 903 q 210 913 232 913 q 166 909 187 913 q 127 894 144 905 q 97 867 109 884 q 81 826 85 850 l 22 826 q 79 947 28 908 q 214 986 130 986 q 288 976 254 986 q 346 946 321 966 q 386 896 371 926 q 404 826 401 866 l 346 826 z "},"̦":{"ha":366,"x_min":53,"x_max":252,"o":"m 125 -110 l 252 -110 l 142 -424 l 53 -424 l 125 -110 z "},"Ω":{"ha":1087,"x_min":63,"x_max":1006,"o":"m 63 94 l 295 93 q 207 174 247 128 q 138 274 167 220 q 93 392 109 329 q 77 526 77 456 q 113 715 77 631 q 212 859 149 799 q 361 950 275 918 q 549 983 448 983 q 738 947 654 983 q 882 851 823 912 q 972 705 941 789 q 1004 524 1004 621 q 986 388 1004 451 q 937 270 967 324 q 866 171 906 216 q 783 93 826 127 l 1006 94 l 1000 0 l 646 0 l 644 82 q 739 162 695 117 q 815 263 783 208 q 866 380 848 317 q 884 511 884 443 q 862 655 884 587 q 799 775 841 723 q 693 857 756 827 q 545 888 629 888 q 405 861 469 888 q 295 784 341 833 q 224 666 250 735 q 199 515 199 597 q 216 383 199 446 q 264 264 233 319 q 339 163 295 209 q 435 82 382 117 l 437 0 l 71 0 l 63 94 z "},"π":{"ha":873,"x_min":12,"x_max":823,"o":"m 823 615 l 685 615 l 685 195 q 686 163 685 180 q 693 132 687 146 q 713 109 700 118 q 751 100 727 100 q 806 109 774 100 q 804 88 805 98 q 804 68 804 78 q 805 36 804 52 q 812 4 807 20 q 763 -3 786 -1 q 720 -5 739 -5 q 652 5 680 -5 q 609 40 625 16 q 585 100 592 63 q 577 189 577 137 l 577 615 l 326 615 q 302 351 315 473 q 289 245 296 298 q 273 144 281 191 q 253 59 264 97 q 231 0 243 21 l 117 0 q 147 74 134 30 q 170 169 160 117 q 187 279 180 221 q 199 395 194 336 q 207 509 203 453 q 211 615 210 566 q 105 604 150 614 q 23 574 60 593 l 12 663 q 51 684 28 675 q 102 697 73 692 q 168 704 131 702 q 250 705 204 705 l 823 705 l 823 615 z "},"–":{"ha":736,"x_min":-4,"x_max":735,"o":"m 735 332 l -4 332 l -4 425 l 735 425 l 735 332 z "},"—":{"ha":1472,"x_min":-2,"x_max":1465,"o":"m 1465 332 l -2 332 l -2 425 l 1465 425 l 1465 332 z "},"‘":{"ha":375,"x_min":88,"x_max":282,"o":"m 212 694 l 88 694 l 193 992 l 282 992 l 212 694 z "},"’":{"ha":375,"x_min":95,"x_max":289,"o":"m 166 992 l 289 992 l 184 694 l 95 694 l 166 992 z "},"‚":{"ha":375,"x_min":85,"x_max":279,"o":"m 157 136 l 279 136 l 175 -161 l 85 -161 l 157 136 z "},"“":{"ha":694,"x_min":121,"x_max":553,"o":"m 245 694 l 121 694 l 226 992 l 316 992 l 245 694 m 482 694 l 358 694 l 463 992 l 553 992 l 482 694 z "},"”":{"ha":694,"x_min":141,"x_max":557,"o":"m 212 992 l 335 992 l 231 694 l 141 694 l 212 992 m 433 992 l 557 992 l 452 694 l 362 694 l 433 992 z "},"„":{"ha":694,"x_min":121,"x_max":559,"o":"m 192 136 l 315 136 l 212 -161 l 121 -161 l 192 136 m 435 136 l 559 136 l 454 -161 l 364 -161 l 435 136 z "},"†":{"ha":693,"x_min":73,"x_max":623,"o":"m 294 633 l 73 633 l 73 723 l 294 723 l 294 984 l 390 984 l 390 723 l 623 723 l 623 633 l 380 633 l 380 77 l 294 77 l 294 633 z "},"‡":{"ha":693,"x_min":66,"x_max":621,"o":"m 300 667 l 71 667 l 71 756 l 304 756 l 286 984 l 402 984 l 388 756 l 621 756 l 621 667 l 383 667 l 383 381 l 616 381 l 616 295 l 383 295 l 401 77 l 285 77 l 300 295 l 66 295 l 66 381 l 300 381 l 300 667 z "},"•":{"ha":671,"x_min":106,"x_max":565,"o":"m 565 475 q 546 393 565 431 q 496 325 528 354 q 423 278 465 295 q 334 261 381 261 q 245 278 287 261 q 173 323 203 294 q 124 390 142 352 q 106 471 106 428 q 125 553 106 514 q 176 622 144 592 q 250 668 208 651 q 338 685 292 685 q 426 668 385 685 q 498 623 467 652 q 547 556 529 595 q 565 475 565 518 z "},"…":{"ha":1099,"x_min":108,"x_max":987,"o":"m 255 -7 l 108 -7 l 108 135 l 255 135 l 255 -7 m 621 -7 l 474 -7 l 474 135 l 621 135 l 621 -7 m 987 -7 l 840 -7 l 840 135 l 987 135 l 987 -7 z "},"‰":{"ha":1618,"x_min":50,"x_max":1559,"o":"m 1331 385 q 1273 372 1297 385 q 1232 336 1248 359 q 1207 284 1215 314 q 1199 222 1199 255 q 1207 158 1199 188 q 1232 106 1215 128 q 1273 71 1249 83 q 1331 58 1298 58 q 1389 72 1364 58 q 1430 107 1413 85 q 1454 159 1446 130 q 1462 222 1462 189 q 1454 286 1462 256 q 1429 337 1446 315 q 1388 372 1413 359 q 1331 385 1363 385 m 1329 -18 q 1232 -1 1274 -18 q 1160 48 1190 16 q 1116 124 1131 79 q 1101 222 1101 168 q 1116 318 1101 274 q 1161 394 1131 361 q 1233 444 1190 426 q 1332 462 1276 462 q 1429 445 1387 462 q 1500 397 1471 429 q 1544 321 1529 366 q 1559 220 1559 276 q 1544 126 1559 170 q 1498 50 1528 82 q 1426 0 1469 18 q 1329 -18 1383 -18 m 278 502 q 181 519 223 502 q 109 568 138 536 q 65 644 80 600 q 50 743 50 688 q 65 838 50 794 q 109 913 80 882 q 181 963 138 945 q 279 981 224 981 q 378 964 335 981 q 449 916 420 947 q 493 841 478 885 q 508 741 508 796 q 492 646 508 690 q 447 570 477 602 q 375 520 418 538 q 278 502 332 502 m 795 -18 q 697 -1 740 -18 q 626 48 655 16 q 582 124 597 79 q 566 222 566 168 q 582 318 566 274 q 626 394 597 361 q 699 444 656 426 q 798 462 742 462 q 896 445 853 462 q 967 396 938 427 q 1010 320 996 364 q 1025 220 1025 275 q 1009 126 1025 170 q 965 50 994 82 q 892 0 935 18 q 795 -18 850 -18 m 796 385 q 738 372 763 385 q 697 336 713 359 q 673 284 681 314 q 665 222 665 255 q 673 158 665 188 q 697 106 681 128 q 739 71 714 83 q 797 58 764 58 q 854 72 829 58 q 895 107 878 85 q 919 160 911 130 q 927 222 927 189 q 919 286 927 256 q 895 337 911 315 q 854 372 879 359 q 796 385 829 385 m 279 905 q 222 892 246 905 q 181 857 197 880 q 157 805 165 835 q 149 743 149 776 q 157 679 149 709 q 181 627 165 649 q 222 591 197 604 q 281 578 247 578 q 337 592 313 578 q 377 627 361 605 q 401 679 393 650 q 410 741 410 709 q 401 806 410 776 q 377 858 393 836 q 336 892 361 880 q 279 905 312 905 m 166 -14 l 802 974 l 903 974 l 270 -14 l 166 -14 z "},"‹":{"ha":435,"x_min":71,"x_max":365,"o":"m 257 620 l 365 620 l 186 367 l 359 116 l 254 116 l 71 367 l 257 620 z "},"›":{"ha":435,"x_min":70,"x_max":364,"o":"m 176 116 l 70 116 l 248 368 l 75 620 l 180 620 l 364 368 l 176 116 z "},"⁄":{"ha":250,"x_min":-229,"x_max":486,"o":"m 486 974 l -126 0 l -229 0 l 385 974 l 486 974 z "},"⁴":{"ha":608,"x_min":-15,"x_max":405,"o":"m 241 417 l 241 545 l -15 545 l -15 606 l 233 958 l 324 958 l 324 617 l 398 617 l 405 545 l 323 545 l 323 417 l 241 417 m 240 617 l 240 739 l 242 845 l 79 617 l 240 617 z "},"€":{"ha":807,"x_min":51,"x_max":750,"o":"m 66 444 l 136 444 q 134 480 134 460 q 135 532 134 501 l 51 532 l 66 625 l 148 625 q 194 769 162 703 q 273 882 225 834 q 386 956 321 929 q 531 982 450 982 q 653 962 599 982 q 750 902 707 943 l 726 774 q 637 856 689 829 q 526 884 586 884 q 429 863 471 884 q 354 808 386 843 q 301 725 322 772 q 268 625 279 678 l 669 625 l 656 532 l 256 532 q 255 487 254 509 q 256 445 256 465 l 256 444 l 646 444 l 633 350 l 266 350 q 292 242 274 291 q 341 159 311 194 q 416 104 372 123 q 520 85 460 85 q 625 106 571 85 q 735 172 679 127 l 734 51 q 627 1 684 16 q 509 -14 571 -14 q 362 12 426 -14 q 254 86 299 39 q 182 201 209 134 q 144 350 155 269 l 53 350 l 66 444 z "},"™":{"ha":1267,"x_min":47,"x_max":1136,"o":"m 684 984 l 844 610 l 1014 984 l 1136 984 l 1136 465 l 1053 465 l 1053 869 l 867 465 l 813 465 l 637 868 l 637 465 l 555 465 l 555 984 l 684 984 m 480 984 l 479 916 l 303 916 l 303 465 l 219 465 l 219 916 l 47 916 l 47 984 l 480 984 z "},"∂":{"ha":791,"x_min":56,"x_max":728,"o":"m 336 75 q 433 104 389 75 q 512 184 478 134 q 569 301 546 234 q 600 444 591 368 q 573 499 590 473 q 532 546 555 526 q 478 577 508 566 q 413 589 448 589 q 318 565 362 589 q 241 498 273 540 q 190 400 208 456 q 171 283 171 345 q 182 198 171 236 q 215 132 194 159 q 267 90 237 105 q 336 75 298 75 m 190 978 q 285 1022 231 1005 q 399 1040 339 1040 q 536 1012 475 1040 q 640 928 597 985 q 705 784 682 871 q 728 578 728 697 q 718 432 728 505 q 686 293 707 359 q 631 171 664 227 q 555 73 599 114 q 455 7 511 31 q 334 -16 400 -16 q 213 7 265 -16 q 126 71 161 30 q 74 166 92 111 q 56 285 56 221 q 83 440 56 368 q 156 566 110 513 q 264 649 202 618 q 397 680 326 680 q 468 670 436 680 q 527 646 500 661 q 573 612 553 631 q 608 573 593 593 q 612 567 608 571 q 612 591 612 576 q 612 618 612 606 q 596 756 612 695 q 551 861 581 818 q 479 926 522 903 q 383 949 437 949 q 334 944 359 949 q 285 930 309 939 q 239 909 261 921 q 197 884 216 897 l 190 978 z "},"∆":{"ha":891,"x_min":27,"x_max":857,"o":"m 857 0 l 27 0 l 27 54 l 380 969 l 504 969 l 857 54 l 857 0 m 701 110 l 462 753 l 439 826 l 417 753 l 182 110 l 701 110 z "},"∏":{"ha":1063,"x_min":75,"x_max":987,"o":"m 977 867 l 900 867 l 900 -223 l 779 -223 l 779 867 l 289 867 l 289 -223 l 170 -223 l 170 867 l 85 867 l 75 965 l 987 965 l 977 867 z "},"∑":{"ha":857,"x_min":39,"x_max":827,"o":"m 827 -223 l 39 -223 l 39 -162 l 473 374 l 54 901 l 54 965 l 797 965 l 797 869 l 220 869 l 252 829 l 609 380 l 227 -83 l 199 -123 l 827 -123 l 827 -223 z "},"−":{"ha":989,"x_min":134,"x_max":846,"o":"m 846 429 l 846 336 l 134 336 l 134 429 l 846 429 z "},"√":{"ha":891,"x_min":59,"x_max":822,"o":"m 822 1082 l 506 -104 l 414 -104 l 189 468 l 73 449 l 59 525 l 259 559 l 414 145 l 454 28 l 481 147 l 734 1082 l 822 1082 z "},"∞":{"ha":1169,"x_min":65,"x_max":1099,"o":"m 1005 419 q 994 474 1005 448 q 963 519 983 500 q 915 551 943 539 q 853 562 886 562 q 788 549 819 562 q 729 513 758 535 q 676 461 701 490 q 630 401 651 433 q 688 332 661 362 q 742 281 715 302 q 797 251 769 261 q 857 241 825 241 q 923 255 895 241 q 969 292 951 269 q 996 349 987 316 q 1005 419 1005 381 m 153 401 q 165 342 153 371 q 197 290 176 313 q 248 254 218 268 q 314 241 277 241 q 377 253 347 241 q 435 287 407 266 q 488 338 463 309 q 536 399 513 367 q 487 464 513 434 q 434 515 462 493 q 374 550 406 537 q 307 562 342 562 q 242 549 271 562 q 194 514 214 536 q 164 463 174 492 q 153 401 153 434 m 1099 404 q 1079 304 1099 349 q 1026 228 1059 260 q 948 178 992 195 q 854 160 903 160 q 715 203 779 160 q 583 331 650 245 q 524 262 554 294 q 459 208 493 231 q 389 173 426 185 q 312 160 353 160 q 212 180 257 160 q 134 236 166 201 q 83 317 101 271 q 65 415 65 363 q 85 503 65 462 q 139 574 105 544 q 216 623 172 605 q 309 640 260 640 q 387 628 350 640 q 458 593 425 616 q 524 539 492 571 q 585 469 555 508 q 643 538 613 507 q 706 592 673 570 q 776 628 739 615 q 856 640 813 640 q 957 623 911 640 q 1033 573 1002 605 q 1082 498 1065 542 q 1099 404 1099 455 z "},"∫":{"ha":476,"x_min":83,"x_max":563,"o":"m 267 851 q 277 953 267 906 q 310 1034 287 1000 q 373 1087 334 1067 q 469 1106 412 1106 q 495 1105 484 1106 q 517 1102 507 1104 q 538 1097 528 1100 q 562 1092 549 1095 l 563 1004 q 529 1012 549 1010 q 488 1015 508 1015 q 432 1005 454 1015 q 398 977 410 996 q 382 931 387 958 q 378 867 378 903 l 378 -16 q 368 -117 378 -71 q 335 -198 358 -164 q 273 -251 311 -232 q 176 -271 234 -271 q 151 -270 162 -271 q 129 -267 139 -269 q 107 -262 118 -264 q 84 -256 96 -260 l 83 -169 q 117 -177 96 -174 q 157 -179 138 -179 q 213 -170 192 -179 q 247 -141 235 -160 q 262 -95 258 -123 q 267 -32 267 -68 l 267 851 z "},"≈":{"ha":916,"x_min":103,"x_max":805,"o":"m 805 351 q 780 280 796 313 q 740 225 764 248 q 683 190 715 203 q 609 178 650 178 q 526 194 568 178 q 428 243 484 211 q 363 276 393 263 q 304 289 333 289 q 226 258 255 289 q 182 177 197 228 l 104 196 q 176 324 124 277 q 307 370 229 370 q 366 362 337 370 q 422 341 395 353 q 476 314 450 329 q 526 287 502 299 q 571 266 549 275 q 613 258 593 258 q 683 287 656 258 q 730 370 711 317 l 805 351 m 804 604 q 779 532 795 564 q 739 478 763 500 q 682 443 714 455 q 608 430 649 430 q 565 434 586 430 q 523 447 545 438 q 477 467 501 455 q 425 496 453 479 q 361 529 391 515 q 302 542 331 542 q 225 511 254 542 q 181 430 196 481 l 103 448 q 174 575 121 529 q 305 622 227 622 q 388 606 349 622 q 475 563 428 590 q 552 523 519 536 q 612 510 585 510 q 682 539 654 510 q 729 623 710 568 l 804 604 z "},"≠":{"ha":916,"x_min":109,"x_max":802,"o":"m 671 749 l 585 576 l 795 576 l 802 494 l 545 494 l 445 302 l 795 302 l 802 220 l 405 220 l 310 31 l 227 43 l 314 220 l 115 220 l 109 302 l 355 302 l 455 494 l 115 494 l 109 576 l 494 576 l 586 762 l 671 749 z "},"≤":{"ha":916,"x_min":109,"x_max":797,"o":"m 797 6 l 109 6 l 109 89 l 797 89 l 797 6 m 777 146 l 134 452 l 134 507 l 777 827 l 777 732 l 251 481 l 252 481 l 777 242 l 777 146 z "},"≥":{"ha":916,"x_min":109,"x_max":794,"o":"m 794 6 l 109 6 l 109 89 l 794 89 l 794 6 m 133 828 l 781 507 l 781 453 l 130 148 l 130 243 l 661 479 l 133 733 l 133 828 z "},"◊":{"ha":846,"x_min":76,"x_max":766,"o":"m 461 145 l 664 482 l 465 823 l 424 898 l 380 819 l 177 484 l 374 143 l 417 66 l 461 145 m 766 483 l 453 -31 l 381 -31 l 76 482 l 387 997 l 459 997 l 766 483 z "},"ﬁ":{"ha":817,"x_min":31,"x_max":701,"o":"m 279 0 l 167 0 l 167 623 l 31 623 l 31 696 l 167 696 l 168 772 q 179 873 169 827 q 212 954 189 920 q 274 1007 235 988 q 370 1027 312 1027 q 395 1026 384 1027 q 417 1023 407 1025 q 439 1018 428 1021 q 462 1013 450 1015 l 463 925 q 429 933 450 930 q 389 935 408 935 q 333 926 354 935 q 300 898 311 916 q 284 851 288 879 q 279 788 279 824 l 279 696 l 701 696 l 701 0 l 589 0 l 589 623 l 279 623 l 279 0 m 699 991 l 699 886 l 595 886 l 595 991 l 699 991 z "},"ﬂ":{"ha":817,"x_min":31,"x_max":702,"o":"m 279 0 l 167 0 l 167 623 l 31 623 l 31 696 l 167 696 l 168 772 q 179 873 169 827 q 212 954 189 920 q 274 1007 235 988 q 370 1027 312 1027 q 395 1026 384 1027 q 417 1023 407 1025 q 439 1018 428 1021 q 462 1013 450 1015 l 463 925 q 429 933 450 930 q 389 935 408 935 q 333 926 354 935 q 300 898 311 916 q 284 851 288 879 q 279 788 279 824 l 279 696 l 446 696 l 447 623 l 279 623 l 279 0 m 702 1012 l 702 0 l 590 0 l 590 1012 l 702 1012 z "}}}
